<?xml version="1.0" encoding="UTF-8"?>
<svg width="110px" height="135px" viewBox="0 0 110 135" version="1.1" xmlns="http://www.w3.org/2000/svg" xmlns:xlink="http://www.w3.org/1999/xlink">
    <!-- Generator: Sketch 51.2 (57519) - http://www.bohemiancoding.com/sketch -->
    <title>Icon</title>
    <desc>Created with Sketch.</desc>
    <defs>
        <path d="M0.756724138,4.62933333 C0.749268728,7.388 2.44661712,10.1506667 5.84379905,12.256 C12.5909453,16.436 23.4944828,16.436 30.195654,12.256 C33.5244946,10.18 35.1920214,7.46266667 35.1982342,4.74133333 C35.2007194,3.48133333 35.2056897,2.22133333 35.2081748,0.961333333 C35.2007194,3.68266667 33.5344352,6.40133333 30.2055945,8.47466667 C23.5031807,12.6546667 12.5996433,12.6546667 5.85498216,8.47466667 C2.4553151,6.372 0.759209275,3.608 0.765422117,0.852" id="path-1"></path>
        <path d="M0.756724138,4.62933333 C0.749268728,7.388 2.44661712,10.1506667 5.84379905,12.256 C12.5909453,16.436 23.4944828,16.436 30.195654,12.256 C33.5244946,10.18 35.1920214,7.46266667 35.1982342,4.74133333 C35.2007194,3.48133333 35.2056897,2.22133333 35.2081748,0.961333333 C35.2007194,3.68266667 33.5344352,6.40133333 30.2055945,8.47466667 C23.5031807,12.6546667 12.5996433,12.6546667 5.85498216,8.47466667 C2.4553151,6.372 0.759209275,3.608 0.765422117,0.852" id="path-3"></path>
        <path d="M3.99287356,0.737333333 C3.34804598,1.13466667 2.70195402,1.53066667 2.05586207,1.92533333 C1.40977011,2.32 0.766206897,2.716 0.118850575,3.11066667 C0.877471264,2.64533333 1.92816092,2.712 3.09137931,3.42 L6.9654023,1.048 C6.28896552,0.636 5.65172414,0.441333333 5.08655172,0.441333333 C4.67942529,0.441333333 4.31022989,0.542666667 3.99287356,0.737333333" id="path-5"></path>
        <path d="M3.99287356,0.737333333 C3.34804598,1.13466667 2.70195402,1.53066667 2.05586207,1.92533333 C1.40977011,2.32 0.766206897,2.716 0.118850575,3.11066667 C0.877471264,2.64533333 1.92816092,2.712 3.09137931,3.42 L6.9654023,1.048 C6.28896552,0.636 5.65172414,0.441333333 5.08655172,0.441333333 C4.67942529,0.441333333 4.31022989,0.542666667 3.99287356,0.737333333" id="path-7"></path>
        <path d="M3.99287356,0.737333333 C3.34804598,1.13466667 2.70195402,1.53066667 2.05586207,1.92533333 C1.40977011,2.32 0.766206897,2.716 0.118850575,3.11066667 C0.877471264,2.64533333 1.92816092,2.712 3.09137931,3.42 L6.9654023,1.048 C6.28896552,0.636 5.65172414,0.441333333 5.08655172,0.441333333 C4.67942529,0.441333333 4.31022989,0.542666667 3.99287356,0.737333333" id="path-9"></path>
        <path d="M3.99287356,0.737333333 C3.34804598,1.13466667 2.70195402,1.53066667 2.05586207,1.92533333 C1.40977011,2.32 0.766206897,2.716 0.118850575,3.11066667 C0.877471264,2.64533333 1.92816092,2.712 3.09137931,3.42 L6.9654023,1.048 C6.28896552,0.636 5.65172414,0.441333333 5.08655172,0.441333333 C4.67942529,0.441333333 4.31022989,0.542666667 3.99287356,0.737333333" id="path-11"></path>
        <path d="M3.99287356,0.737333333 C3.34804598,1.13466667 2.70195402,1.53066667 2.05586207,1.92533333 C1.40977011,2.32 0.766206897,2.716 0.118850575,3.11066667 C0.877471264,2.64533333 1.92816092,2.712 3.09137931,3.42 L6.9654023,1.048 C6.28896552,0.636 5.65172414,0.441333333 5.08655172,0.441333333 C4.67942529,0.441333333 4.31022989,0.542666667 3.99287356,0.737333333" id="path-13"></path>
        <path d="M3.99287356,0.737333333 C3.34804598,1.13466667 2.70195402,1.53066667 2.05586207,1.92533333 C1.40977011,2.32 0.766206897,2.716 0.118850575,3.11066667 C0.877471264,2.64533333 1.92816092,2.712 3.09137931,3.42 L6.9654023,1.048 C6.28896552,0.636 5.65172414,0.441333333 5.08655172,0.441333333 C4.67942529,0.441333333 4.31022989,0.542666667 3.99287356,0.737333333" id="path-15"></path>
        <path d="M3.99287356,0.737333333 C3.34804598,1.13466667 2.70195402,1.53066667 2.05586207,1.92533333 C1.40977011,2.32 0.766206897,2.716 0.118850575,3.11066667 C0.877471264,2.64533333 1.92816092,2.712 3.09137931,3.42 L6.9654023,1.048 C6.28896552,0.636 5.65172414,0.441333333 5.08655172,0.441333333 C4.67942529,0.441333333 4.31022989,0.542666667 3.99287356,0.737333333" id="path-17"></path>
        <path d="M3.99287356,0.737333333 C3.34804598,1.13466667 2.70195402,1.53066667 2.05586207,1.92533333 C1.40977011,2.32 0.766206897,2.716 0.118850575,3.11066667 C0.877471264,2.64533333 1.92816092,2.712 3.09137931,3.42 L6.9654023,1.048 C6.28896552,0.636 5.65172414,0.441333333 5.08655172,0.441333333 C4.67942529,0.441333333 4.31022989,0.542666667 3.99287356,0.737333333" id="path-19"></path>
        <path d="M3.99287356,0.737333333 C3.34804598,1.13466667 2.70195402,1.53066667 2.05586207,1.92533333 C1.40977011,2.32 0.766206897,2.716 0.118850575,3.11066667 C0.877471264,2.64533333 1.92816092,2.712 3.09137931,3.42 L6.9654023,1.048 C6.28896552,0.636 5.65172414,0.441333333 5.08655172,0.441333333 C4.67942529,0.441333333 4.31022989,0.542666667 3.99287356,0.737333333" id="path-21"></path>
        <path d="M3.99287356,0.737333333 C3.34804598,1.13466667 2.70195402,1.53066667 2.05586207,1.92533333 C1.40977011,2.32 0.766206897,2.716 0.118850575,3.11066667 C0.877471264,2.64533333 1.92816092,2.712 3.09137931,3.42 L6.9654023,1.048 C6.28896552,0.636 5.65172414,0.441333333 5.08655172,0.441333333 C4.67942529,0.441333333 4.31022989,0.542666667 3.99287356,0.737333333" id="path-23"></path>
        <path d="M1.44536207,2.7212 C1.44403448,4.1786 0.955482759,5.2048 0.168224138,5.6892 C0.371344828,5.5646 0.575793103,5.4386 0.777586207,5.314 C0.839982759,5.2762 0.920965517,5.2272 0.982034483,5.188 C1.52501724,4.8576 2.06667241,4.5244 2.60965517,4.1912 C3.08360345,3.9014 3.55887931,3.6116 4.03282759,3.3204 C4.09389655,3.284 4.17487931,3.235 4.23727586,3.1958 C5.0232069,2.7128 5.51043103,1.688 5.51441379,0.2278" id="path-25"></path>
        <path d="M0.783953202,2.61866667 C3.0114532,4.024 4.80491379,7.42133333 4.79881773,10.22 L8.53326355,7.84666667 C8.54057882,5.048 6.74589901,1.65066667 4.51961823,0.245333333" id="path-27"></path>
        <path d="M0.783953202,2.61866667 C3.0114532,4.024 4.80491379,7.42133333 4.79881773,10.22 L8.53326355,7.84666667 C8.54057882,5.048 6.74589901,1.65066667 4.51961823,0.245333333" id="path-29"></path>
        <path d="M0.783953202,2.61866667 C3.0114532,4.024 4.80491379,7.42133333 4.79881773,10.22 L8.53326355,7.84666667 C8.54057882,5.048 6.74589901,1.65066667 4.51961823,0.245333333" id="path-31"></path>
        <path d="M0.783953202,2.61866667 C3.0114532,4.024 4.80491379,7.42133333 4.79881773,10.22 L8.53326355,7.84666667 C8.54057882,5.048 6.74589901,1.65066667 4.51961823,0.245333333" id="path-33"></path>
        <path d="M0.783953202,2.61866667 C3.0114532,4.024 4.80491379,7.42133333 4.79881773,10.22 L8.53326355,7.84666667 C8.54057882,5.048 6.74589901,1.65066667 4.51961823,0.245333333" id="path-35"></path>
        <path d="M0.783953202,2.61866667 C3.0114532,4.024 4.80491379,7.42133333 4.79881773,10.22 L8.53326355,7.84666667 C8.54057882,5.048 6.74589901,1.65066667 4.51961823,0.245333333" id="path-37"></path>
        <path d="M0.783953202,2.61866667 C3.0114532,4.024 4.80491379,7.42133333 4.79881773,10.22 L8.53326355,7.84666667 C8.54057882,5.048 6.74589901,1.65066667 4.51961823,0.245333333" id="path-39"></path>
        <path d="M0.783953202,2.61866667 C3.0114532,4.024 4.80491379,7.42133333 4.79881773,10.22 L8.53326355,7.84666667 C8.54057882,5.048 6.74589901,1.65066667 4.51961823,0.245333333" id="path-41"></path>
        <path d="M0.783953202,2.61866667 C3.0114532,4.024 4.80491379,7.42133333 4.79881773,10.22 L8.53326355,7.84666667 C8.54057882,5.048 6.74589901,1.65066667 4.51961823,0.245333333" id="path-43"></path>
        <path d="M0.783953202,2.61866667 C3.0114532,4.024 4.80491379,7.42133333 4.79881773,10.22 L8.53326355,7.84666667 C8.54057882,5.048 6.74589901,1.65066667 4.51961823,0.245333333" id="path-45"></path>
        <path d="M0.783953202,2.61866667 C3.0114532,4.024 4.80491379,7.42133333 4.79881773,10.22 L8.53326355,7.84666667 C8.54057882,5.048 6.74589901,1.65066667 4.51961823,0.245333333" id="path-47"></path>
        <path d="M0.783953202,2.61866667 C3.0114532,4.024 4.80491379,7.42133333 4.79881773,10.22 L8.53326355,7.84666667 C8.54057882,5.048 6.74589901,1.65066667 4.51961823,0.245333333" id="path-49"></path>
        <path d="M0.783953202,2.61866667 C3.0114532,4.024 4.80491379,7.42133333 4.79881773,10.22 L8.53326355,7.84666667 C8.54057882,5.048 6.74589901,1.65066667 4.51961823,0.245333333" id="path-51"></path>
        <path d="M0.783953202,2.61866667 C3.0114532,4.024 4.80491379,7.42133333 4.79881773,10.22 L8.53326355,7.84666667 C8.54057882,5.048 6.74589901,1.65066667 4.51961823,0.245333333" id="path-53"></path>
        <path d="M0.783953202,2.61866667 C3.0114532,4.024 4.80491379,7.42133333 4.79881773,10.22 L8.53326355,7.84666667 C8.54057882,5.048 6.74589901,1.65066667 4.51961823,0.245333333" id="path-55"></path>
        <path d="M0.783953202,2.61866667 C3.0114532,4.024 4.80491379,7.42133333 4.79881773,10.22 L8.53326355,7.84666667 C8.54057882,5.048 6.74589901,1.65066667 4.51961823,0.245333333" id="path-57"></path>
    </defs>
    <g id="Page-1" stroke="none" stroke-width="1" fill="none" fill-rule="evenodd">
        <g id="Landing-Page" transform="translate(-667.000000, -982.000000)">
            <g id="Features" transform="translate(0.000000, 643.000000)">
                <g id="2" transform="translate(600.000000, 339.000000)">
                    <g id="Icon" transform="translate(67.000000, 0.000000)">
                        <path d="M71.0156563,119.79387 C70.9903471,119.932882 70.9485869,120.074542 70.9144194,120.212231 C70.9511178,120.065275 70.9916126,119.919643 71.0169218,119.770039 C71.0156563,119.779307 71.0156563,119.785926 71.0156563,119.79387 M70.7524403,120.814617 C70.7056182,120.949658 70.6436106,121.084698 70.5891958,121.217091 C70.6461415,121.078079 70.7094146,120.937742 70.7575022,120.794758 C70.7549712,120.801378 70.7537058,120.807998 70.7524403,120.814617 M70.3171215,121.831393 C70.252583,121.955842 70.1741243,122.076319 70.1032585,122.198121 C70.1779207,122.073671 70.2576448,121.945251 70.3234488,121.814182 C70.3209179,121.820801 70.3196524,121.826097 70.3171215,121.831393 M69.6692051,122.879943 C69.6021357,122.973942 69.5274734,123.066616 69.4553421,123.157967 C69.5300044,123.062645 69.6071975,122.965998 69.6755325,122.868027 C69.6730015,122.871999 69.6717361,122.874647 69.6692051,122.879943 M69.0908892,123.626637 C68.9554848,123.781537 68.7947712,123.931141 68.6441812,124.083392 C68.7985675,123.927169 68.9618121,123.773593 69.0997474,123.613398 C69.095951,123.618694 69.0946856,123.621342 69.0908892,123.626637 M67.8115075,124.85127 C67.7507653,124.901579 67.6912886,124.951888 67.629281,125.004845 C67.6938195,124.950564 67.7558271,124.896283 67.8191002,124.84465 C67.8165693,124.845974 67.8140384,124.848622 67.8115075,124.85127 M71.0801949,119.191483 C71.3168362,116.286788 69.6173212,113.331784 65.9449515,111.115531 C59.0696984,106.962373 47.9652725,106.962373 41.1393724,111.110235 C37.7390769,113.178208 36.0433583,115.886962 36.0471547,118.598364 C36.0471547,118.589097 36.0446238,118.579829 36.0446238,118.571885 L36.0345001,122.32257 C36.0281728,125.061774 37.7555279,127.806274 41.2165655,129.896754 C41.6303715,130.144328 42.0606284,130.378663 42.5022745,130.599759 C42.6528645,130.671251 42.8097817,130.738771 42.964168,130.808939 C43.2235877,130.929417 43.4792109,131.05519 43.7462233,131.165076 C43.7765944,131.178315 43.8107619,131.186258 43.841133,131.198174 C44.4510855,131.447072 45.0825508,131.666844 45.7292017,131.865433 C45.7785547,131.88132 45.8253768,131.902503 45.8759953,131.917066 C46.0202579,131.959432 46.1708479,131.989882 46.3151105,132.0296 C46.6795634,132.130218 47.0452819,132.226865 47.4173276,132.311596 C47.5135027,132.334103 47.6071468,132.364553 47.7045874,132.385736 C47.8475845,132.416186 47.9956435,132.437369 48.1399062,132.463848 C48.4486788,132.526072 48.7599824,132.584325 49.0725514,132.635958 C49.1978321,132.655817 49.318051,132.68362 49.4433317,132.702154 C49.5800015,132.723337 49.7192023,132.732605 49.8558722,132.75114 C50.1456629,132.78821 50.4354536,132.822632 50.7277752,132.853082 C50.8695069,132.867645 51.0074423,132.890152 51.149174,132.903391 C51.280782,132.912659 51.4136555,132.913983 51.5452635,132.924574 C51.8388506,132.945757 52.1311722,132.96032 52.4260248,132.973559 C52.5766147,132.980179 52.7259392,132.996066 52.8765291,132.998714 C52.996748,133.002686 53.1157014,132.996066 53.2359202,132.99739 C53.5573475,133.002686 53.8762438,132.998714 54.1964056,132.99077 C54.3558538,132.989447 54.5140365,132.996066 54.6734847,132.989447 C54.7658634,132.986799 54.8582421,132.973559 54.9531517,132.969588 C55.3492412,132.951053 55.7440652,132.921926 56.1388892,132.888828 C56.2983374,132.874265 56.459051,132.870293 56.6184992,132.854406 C56.6678522,132.84911 56.7159397,132.839843 56.7652928,132.834547 C57.4372529,132.759083 58.1016202,132.665085 58.7558639,132.541959 C58.7887659,132.536664 58.8229334,132.534016 58.8558354,132.527396 C59.0469201,132.492974 59.2316775,132.441341 59.4202313,132.400299 C59.7454549,132.331455 60.0706786,132.266583 60.3895749,132.184499 C60.6211544,132.126246 60.847672,132.057402 61.0767206,131.991206 C61.3804314,131.903827 61.6841422,131.819095 61.9802602,131.721125 C62.0447987,131.699942 62.1118682,131.684055 62.1764067,131.664196 C62.2827055,131.627126 62.3801461,131.576817 62.4864448,131.541071 C62.9571966,131.372932 63.4178246,131.19023 63.865798,130.992965 C64.0315735,130.920149 64.1986145,130.848657 64.3605935,130.771869 C64.9325822,130.500464 65.4906508,130.214496 66.0158174,129.896754 C66.0879487,129.853064 66.16008,129.808051 66.2296804,129.764361 C66.3878631,129.665067 66.5232675,129.556505 66.672592,129.455886 C66.8902514,129.308931 67.1117072,129.161975 67.3129156,129.007075 C67.4862838,128.876007 67.6406701,128.738318 67.8026492,128.603278 C67.9861412,128.448378 68.1746949,128.296127 68.3417359,128.137255 C68.3759033,128.104157 68.4176636,128.076355 68.4505656,128.043257 C68.6758178,127.824809 68.8833535,127.602389 69.0807655,127.378645 C69.1212603,127.330984 69.1554277,127.285971 69.194657,127.239633 C69.3110795,127.101945 69.4312984,126.961609 69.5375971,126.821272 C69.5844192,126.759048 69.6147903,126.694175 69.6590815,126.633275 C69.8096714,126.421447 69.9425449,126.209618 70.0703565,125.995142 C70.1235059,125.902467 70.1943717,125.816412 70.2437247,125.723737 C70.2677685,125.6774 70.2816886,125.631062 70.3057324,125.584725 C70.4031729,125.395403 70.482897,125.203434 70.5626211,125.011465 C70.6094432,124.900255 70.6714508,124.791693 70.7106801,124.680483 C70.7246002,124.643413 70.7283965,124.606343 70.7410512,124.569273 C70.8043242,124.386571 70.8473499,124.199898 70.8929066,124.014548 C70.9232776,123.891423 70.9700997,123.772269 70.9941435,123.649144 C71.0004708,123.616046 70.9979399,123.582948 71.0055326,123.551174 C71.0397001,123.355232 71.0523547,123.160615 71.0688057,122.965998 C71.0789294,122.841549 71.1055041,122.718424 71.1093005,122.595299 C71.110566,122.544989 71.1118314,122.493356 71.1118314,122.443047 C71.1118314,122.439075 71.1118314,122.437751 71.1118314,122.435103 C71.1143623,121.183993 71.1181587,119.931558 71.1206897,118.681771 C71.1206897,118.851234 71.094115,119.020697 71.0801949,119.191483" id="Fill-1" fill="#250F8A"></path>
                        <g id="Group-57" transform="translate(35.086207, 117.000000)">
                            <g id="Group-5">
                                <mask id="mask-2" fill="white">
                                    <use xlink:href="#path-1"></use>
                                </mask>
                                <g id="Clip-4"></g>
                                <path d="M35.2080505,0.962133333 L35.19811,4.74213333 C35.19811,4.79546667 35.1968674,4.8488 35.1956249,4.90346667 L35.206808,1.1248 C35.206808,1.07013333 35.2080505,1.01546667 35.2080505,0.962133333" id="Fill-3" fill="#872D24" mask="url(#mask-2)"></path>
                            </g>
                            <g id="Group-8">
                                <mask id="mask-4" fill="white">
                                    <use xlink:href="#path-3"></use>
                                </mask>
                                <g id="Clip-7"></g>
                                <path d="M35.2063109,1.12493333 L35.1963704,4.9036 C35.1864298,5.25826667 35.1491528,5.6116 35.0832967,5.96493333 L35.0932372,2.1836 C35.1590933,1.83293333 35.1963704,1.47826667 35.2063109,1.12493333" id="Fill-6" fill="#250F8A" mask="url(#mask-4)"></path>
                            </g>
                            <g id="Group-11" transform="translate(34.137931, 2.000000)" fill="#250F8A">
                                <path d="M0.95543044,0.183466667 L0.945489893,3.9648 C0.879633769,4.3128 0.786441141,4.65946667 0.667154578,5.00346667 L0.677095125,1.22346667 C0.796381688,0.8808 0.889574316,0.534133333 0.95543044,0.183466667" id="Fill-9"></path>
                            </g>
                            <g id="Group-14" transform="translate(34.137931, 3.000000)" fill="#250F8A">
                                <path d="M0.676970868,0.223866667 L0.667030321,4.00386667 C0.542773484,4.35986667 0.389937574,4.7092 0.208522592,5.05453333 L0.218463139,1.27453333 C0.399878121,0.927866667 0.552714031,0.5772 0.676970868,0.223866667" id="Fill-12"></path>
                            </g>
                            <g id="Group-17" transform="translate(33.189655, 4.000000)" fill="#250F8A">
                                <path d="M1.16661474,0.274666667 L1.1566742,4.05466667 C0.959105826,4.42933333 0.727988109,4.79733333 0.463321046,5.15866667 L0.473261593,1.38 C0.737928656,1.01733333 0.969046373,0.650666667 1.16661474,0.274666667" id="Fill-15"></path>
                            </g>
                            <g id="Group-20" transform="translate(32.241379, 5.000000)" fill="#250F8A">
                                <path d="M1.4214132,0.380133333 L1.41147265,4.1588 C1.10207313,4.5788 0.746698573,4.99213333 0.344106421,5.3908 L0.354046968,1.6108 C0.75663912,1.21213333 1.11201367,0.801466667 1.4214132,0.380133333" id="Fill-18"></path>
                            </g>
                            <g id="Group-23" transform="translate(30.344828, 6.000000)" fill="#250F8A">
                                <path d="M2.25010166,0.610533333 L2.24140369,4.39053333 C1.62384721,5.00253333 0.896944709,5.58253333 0.060696195,6.12386667 L0.070636742,2.34386667 C0.905642687,1.80386667 1.63254518,1.22253333 2.25010166,0.610533333" id="Fill-21"></path>
                            </g>
                            <g id="Group-26" transform="translate(25.603448, 8.000000)" fill="#250F8A">
                                <path d="M4.81151902,0.3436 L4.80157848,4.1236 C4.73323722,4.1676 4.66241082,4.2116 4.59158442,4.25693333 C3.44345125,4.97293333 2.1723038,5.56493333 0.821631986,6.03693333 L0.830329964,2.25693333 C2.18224435,1.78493333 3.45463436,1.1916 4.60152497,0.4756 C4.67359394,0.4316 4.7419352,0.3876 4.81151902,0.3436" id="Fill-24"></path>
                            </g>
                            <g id="Group-29" transform="translate(22.758621, 10.000000)" fill="#250F8A">
                                <path d="M3.67565458,0.2564 L3.66571403,4.0364 C2.62071403,4.39906667 1.52725386,4.68973333 0.405214625,4.90573333 L0.413912604,1.12706667 C1.53719441,0.909733333 2.63065458,0.619066667 3.67565458,0.2564" id="Fill-27"></path>
                            </g>
                            <g id="Group-32" transform="translate(20.862069, 11.000000)" fill="#250F8A">
                                <path d="M2.31108561,0.127466667 L2.30238763,3.90613333 C1.58045541,4.0448 0.846097503,4.15546667 0.105526754,4.23546667 L0.114224732,0.454133333 C0.85603805,0.3768 1.59039596,0.266133333 2.31108561,0.127466667" id="Fill-30"></path>
                            </g>
                            <g id="Group-35" transform="translate(18.965517, 11.000000)" fill="#250F8A">
                                <path d="M2.01127348,0.454266667 L2.00257551,4.2356 C1.36886564,4.30226667 0.731428062,4.3476 0.0927479191,4.3716 L0.101445898,0.592933333 C0.742611177,0.568933333 1.37880618,0.522266667 2.01127348,0.454266667" id="Fill-33"></path>
                            </g>
                            <g id="Group-38" transform="translate(17.068966, 11.000000)" fill="#250F8A">
                                <path d="M1.99849465,0.592266667 L1.9885541,4.37093333 C1.40081926,4.3936 0.811841855,4.39626667 0.224107015,4.38026667 L0.234047562,0.6016 C0.821782402,0.6176 1.41075981,0.6136 1.99849465,0.592266667" id="Fill-36"></path>
                            </g>
                            <g id="Group-41" transform="translate(15.172414, 11.000000)" fill="#250F8A">
                                <path d="M2.13072354,0.601466667 L2.120783,4.38013333 C1.55417182,4.36546667 0.987560642,4.33213333 0.42467717,4.28546667 L0.434617717,0.504133333 C0.997501189,0.553466667 1.56411237,0.585466667 2.13072354,0.601466667" id="Fill-39"></path>
                            </g>
                            <g id="Group-44" transform="translate(13.275862, 11.000000)" fill="#250F8A">
                                <path d="M2.33141795,0.503733333 L2.32147741,4.28506667 C1.7598365,4.2344 1.20068074,4.1664 0.646495244,4.0824 L0.656435791,0.3024 C1.21062128,0.3864 1.76977705,0.4544 2.33141795,0.503733333" id="Fill-42"></path>
                            </g>
                            <g id="Group-47" transform="translate(11.379310, 10.000000)" fill="#250F8A">
                                <path d="M2.55348454,1.302 L2.543544,5.082 C1.96823484,4.994 1.39789596,4.88866667 0.836255054,4.76333333 L0.844953032,0.984666667 C1.4078365,1.10866667 1.97693282,1.214 2.55348454,1.302" id="Fill-45"></path>
                            </g>
                            <g id="Group-50" transform="translate(9.482759, 10.000000)" fill="#250F8A">
                                <path d="M2.74200178,0.984266667 L2.73206124,4.76293333 C2.12320273,4.62826667 1.52428478,4.4696 0.936549941,4.29093333 L0.946490488,0.512266667 C1.53422533,0.690933333 2.13314328,0.846933333 2.74200178,0.984266667" id="Fill-48"></path>
                            </g>
                            <g id="Group-53" transform="translate(7.586207, 9.000000)" fill="#250F8A">
                                <path d="M2.84266944,1.5116 L2.83272889,5.2916 C2.11576694,5.0716 1.41620095,4.81826667 0.742728894,4.53426667 L0.751426873,0.754266667 C1.4261415,1.0396 2.12446492,1.29293333 2.84266944,1.5116" id="Fill-51"></path>
                            </g>
                            <g id="Group-56" fill="#250F8A">
                                <path d="M8.3381308,9.75373333 L8.32819025,13.5337333 C7.45466468,13.1630667 6.62214388,12.7377333 5.84429608,12.2564 C2.44587158,10.1510667 0.749765755,7.3884 0.755978597,4.6284 L0.765919144,0.851066667 C0.758463734,3.6084 2.45581213,6.37106667 5.85423662,8.47506667 C6.63208442,8.9564 7.46336266,9.3844 8.3381308,9.75373333" id="Fill-54"></path>
                            </g>
                        </g>
                        <g id="Group-71">
                            <path d="M60.999125,123.477221 L68.582875,123.477221 C71.836625,119.494721 70.749125,114.511632 65.305375,111.185603 C61.551625,108.890603 56.521625,107.868838 51.635375,108.111044 L45.067875,113.741338 L60.999125,123.477221 Z" id="Fill-58" fill="#02ECF1"></path>
                            <path d="M60.999125,123.477221 L45.067875,113.741338 L51.635375,108.111044 C47.680375,108.305603 43.819125,109.324721 40.802875,111.180309 C34.061625,115.329574 34.097875,122.05575 40.890375,126.207662 C47.675375,130.355603 58.644125,130.355603 65.385375,126.207662 C66.721625,125.387074 67.779125,124.460603 68.582875,123.477221 L60.999125,123.477221 Z" id="Fill-60" fill="#02ECF1"></path>
                            <polygon id="Fill-62" fill="#4F34CE" points="61.112 80.9588382 63.41075 79.5439853 63.297 122.063691 60.9995 123.477221"></polygon>
                            <polygon id="Fill-64" fill="#263543" points="45.1825 71.2184559 47.48 69.8049265 63.41125 79.5434559 61.1125 80.9583088"></polygon>
                            <polygon id="Fill-66" fill="#250F8A" points="61.112 80.9588382 60.9995 123.477221 45.06825 113.741338 45.182 71.2189853"></polygon>
                            <g id="Group-70" fill="#250F8A">
                                <path d="M1.9665,2.85895588 C1.9715,2.85895588 1.9765,2.85763235 1.98025,2.85630882 C1.88525,2.87880882 1.804,2.92645588 1.71525,2.95954412 C1.799,2.92910294 1.8765,2.88013235 1.9665,2.85895588 M3.43025,2.98866176 C3.43275,2.98866176 3.434,2.98998529 3.43525,2.98998529 C3.34775,2.95954412 3.269,2.95292647 3.18275,2.93175 C3.2665,2.95292647 3.34525,2.95954412 3.43025,2.98866176 M2.67275,2.81792647 L2.68525,2.81792647 C2.58525,2.80998529 2.49525,2.82983824 2.40025,2.83116176 C2.4915,2.82983824 2.5765,2.80998529 2.67275,2.81792647 M105.71525,133.537632 C105.744,133.468809 105.76275,133.382779 105.7865,133.308662 C105.749,133.423809 105.724,133.557485 105.6765,133.662044 C105.694,133.626309 105.70025,133.577338 105.71525,133.537632 M105.5115,133.936015 C105.4415,134.053809 105.38025,134.184838 105.29775,134.284103 C105.38025,134.184838 105.4415,134.053809 105.5115,133.936015 M109.989,67.9818971 C109.979,67.7966029 109.9615,67.6099853 109.9365,67.4207206 C109.93275,67.3863088 109.92525,67.3532206 109.92025,67.3188088 C109.91525,67.2923382 109.91025,67.2632206 109.9065,67.2354265 C109.8915,67.1441029 109.88025,67.0541029 109.86275,66.9641029 C109.8365,66.8291029 109.80775,66.6914559 109.774,66.5591029 C109.7465,66.4386618 109.714,66.3195441 109.68025,66.2004265 C109.68025,66.1991029 109.679,66.1951324 109.679,66.1938088 L109.67525,66.1818971 C109.64275,66.0641029 109.6065,65.9476324 109.56775,65.8298382 C109.53025,65.7146912 109.49025,65.6008676 109.449,65.4870441 C109.40775,65.3745441 109.364,65.2633676 109.319,65.1521912 C109.314,65.1416029 109.31025,65.1310147 109.30525,65.1191029 C109.3015,65.1124853 109.29775,65.1045441 109.29525,65.0966029 C109.2565,65.0039559 109.21775,64.9126324 109.17775,64.8213088 C109.12775,64.7101324 109.0765,64.6002794 109.024,64.49175 C108.969,64.37925 108.91275,64.2680735 108.854,64.1582206 C108.84025,64.1330735 108.824,64.1066029 108.81025,64.0801324 C108.8015,64.06425 108.79275,64.0483676 108.784,64.0338088 C108.74525,63.9623382 108.7065,63.8895441 108.66525,63.8193971 C108.59775,63.7016029 108.5265,63.5851324 108.45275,63.4686618 C108.374,63.34425 108.29275,63.2198382 108.209,63.0993971 C108.20525,63.0954265 108.2015,63.0901324 108.19775,63.0848382 C108.19025,63.0729265 108.18025,63.0610147 108.1715,63.0491029 C108.0865,62.9273382 108.0015,62.8082206 107.9115,62.69175 C107.78275,62.5249853 107.65025,62.3635147 107.514,62.2073382 C107.51025,62.2046912 107.5065,62.2007206 107.50275,62.1980735 C107.33275,62.0048382 107.1515,61.8380735 106.97025,61.6686618 C106.88775,61.5866029 106.809,61.4966029 106.72275,61.4211618 C106.4515,61.1868971 106.1715,60.9791029 105.884,60.8043971 L8.1365,1.04969118 C8.06775,1.00866176 8.0015,0.970279412 7.934,0.933220588 C7.774,0.844544118 7.61525,0.767779412 7.46025,0.702926471 C7.41775,0.685720588 7.3765,0.675132353 7.334,0.65925 C7.309,0.648661765 7.284,0.640720588 7.259,0.630132353 C7.21025,0.615573529 7.1615,0.593073529 7.114,0.578514706 C7.014,0.550720588 6.91525,0.52425 6.819,0.505720588 C6.73025,0.487191176 6.64275,0.472632353 6.55775,0.463367647 C6.54775,0.462044118 6.53775,0.462044118 6.5265,0.460720588 L6.50275,0.460720588 C6.44025,0.455426471 6.379,0.450132353 6.31775,0.450132353 C6.24275,0.448808824 6.16775,0.451455882 6.094,0.45675 C6.024,0.460720588 5.9515,0.469985294 5.88275,0.484544118 C5.86275,0.487191176 5.84525,0.492485294 5.82525,0.497779412 C5.81525,0.500426471 5.80525,0.50175 5.7965,0.504397059 C5.75775,0.513661765 5.71775,0.518955882 5.68025,0.529544118 C5.61275,0.550720588 5.54775,0.571897059 5.484,0.598367647 C5.42025,0.623514706 5.3565,0.653955882 5.29525,0.685720588 C5.2615,0.70425 5.229,0.724102941 5.1965,0.742632353 C4.559,1.13572059 3.92025,1.52748529 3.28275,1.92189706 C2.644,2.31498529 2.0065,2.70807353 1.36775,3.09983824 C1.37025,3.09719118 1.37275,3.09719118 1.37525,3.09586765 C0.6315,3.54851471 0.16775,4.52130882 0.164,5.90572059 L0.00025,67.1083676 C-0.00475,69.0804265 0.93025,71.3436618 2.2865,72.9954265 C2.839,73.6691029 3.45525,74.2541029 4.1165,74.6564559 L101.864,134.412485 C102.46525,134.779103 103.03275,134.96175 103.549,134.994838 C104.15025,135.034544 104.66525,134.843956 105.074,134.477338 C104.984,134.558074 104.90275,134.654691 104.8015,134.715574 C104.99275,134.596456 105.18525,134.479985 105.3765,134.362191 C105.434,134.326456 105.51025,134.280132 105.56775,134.245721 C106.079,133.930721 106.589,133.615721 107.099,133.302044 C107.5465,133.028074 107.99275,132.752779 108.44025,132.477485 C108.49775,132.44175 108.574,132.394103 108.63275,132.358368 C109.37275,131.903074 109.8315,130.93425 109.83525,129.555132 L109.999,68.3511618 C109.999,68.2293971 109.99525,68.1063088 109.989,67.9818971" id="Fill-68"></path>
                            </g>
                        </g>
                        <g id="Group-108" transform="translate(0.948276, 0.000000)">
                            <g id="Group-74">
                                <mask id="mask-6" fill="white">
                                    <use xlink:href="#path-5"></use>
                                </mask>
                                <g id="Clip-73"></g>
                                <path d="M0.119103448,3.11053333 L3.99186207,0.7372 C4.02473563,0.718533333 4.0576092,0.698533333 4.09174713,0.682533333 L0.217724138,3.05453333 C0.183586207,3.0732 0.150712644,3.09053333 0.119103448,3.11053333" id="Fill-72" fill="#1A242E" mask="url(#mask-6)"></path>
                            </g>
                            <g id="Group-77">
                                <mask id="mask-8" fill="white">
                                    <use xlink:href="#path-7"></use>
                                </mask>
                                <g id="Clip-76"></g>
                                <path d="M0.217218391,3.05453333 L4.09124138,0.682533333 C4.1531954,0.646533333 4.21767816,0.618533333 4.28342529,0.590533333 L0.409402299,2.96653333 C0.34491954,2.99186667 0.280436782,3.02253333 0.217218391,3.05453333" id="Fill-75" fill="#1B252F" mask="url(#mask-8)"></path>
                            </g>
                            <g id="Group-80">
                                <mask id="mask-10" fill="white">
                                    <use xlink:href="#path-9"></use>
                                </mask>
                                <g id="Clip-79"></g>
                                <path d="M0.409908046,2.966 L4.28266667,0.591333333 C4.34714943,0.564666667 4.41416092,0.543333333 4.48117241,0.524666667 L0.607149425,2.898 C0.540137931,2.91666667 0.474390805,2.93933333 0.409908046,2.966" id="Fill-78" fill="#1C2631" mask="url(#mask-10)"></path>
                            </g>
                            <g id="Group-83">
                                <mask id="mask-12" fill="white">
                                    <use xlink:href="#path-11"></use>
                                </mask>
                                <g id="Clip-82"></g>
                                <path d="M0.607402299,2.89826667 L4.48016092,0.524933333 C4.54843678,0.5036 4.61671264,0.4876 4.68625287,0.476933333 L0.812229885,2.85026667 C0.742689655,2.8636 0.674413793,2.87826667 0.607402299,2.89826667" id="Fill-81" fill="#1D2732" mask="url(#mask-12)"></path>
                            </g>
                            <g id="Group-86">
                                <mask id="mask-14" fill="white">
                                    <use xlink:href="#path-13"></use>
                                </mask>
                                <g id="Clip-85"></g>
                                <path d="M0.811850575,2.85013333 L4.68587356,0.4768 C4.75541379,0.4648 4.82874713,0.455466667 4.89955172,0.4488 L1.0267931,2.82213333 C0.95345977,2.82746667 0.882655172,2.83813333 0.811850575,2.85013333" id="Fill-84" fill="#1D2934" mask="url(#mask-14)"></path>
                            </g>
                            <g id="Group-89">
                                <mask id="mask-16" fill="white">
                                    <use xlink:href="#path-15"></use>
                                </mask>
                                <g id="Clip-88"></g>
                                <path d="M1.02729885,2.8228 L4.90005747,0.449466667 C4.97465517,0.4428 5.05051724,0.441466667 5.12637931,0.441466667 L1.25362069,2.8148 C1.17649425,2.8148 1.10189655,2.81613333 1.02729885,2.8228" id="Fill-87" fill="#1E2A35" mask="url(#mask-16)"></path>
                            </g>
                            <g id="Group-92">
                                <mask id="mask-18" fill="white">
                                    <use xlink:href="#path-17"></use>
                                </mask>
                                <g id="Clip-91"></g>
                                <path d="M1.25324138,2.81493333 L5.126,0.4416 C5.20565517,0.442933333 5.28657471,0.4496 5.36875862,0.456266667 L1.49473563,2.83093333 C1.41255172,2.82293333 1.33289655,2.81626667 1.25324138,2.81493333" id="Fill-90" fill="#1F2B37" mask="url(#mask-18)"></path>
                            </g>
                            <g id="Group-95">
                                <mask id="mask-20" fill="white">
                                    <use xlink:href="#path-19"></use>
                                </mask>
                                <g id="Clip-94"></g>
                                <path d="M1.49524138,2.83066667 L5.368,0.457333333 C5.45524138,0.466666667 5.54374713,0.48 5.63225287,0.497333333 L1.75822989,2.87066667 C1.66972414,2.85466667 1.58121839,2.84 1.49524138,2.83066667" id="Fill-93" fill="#202C38" mask="url(#mask-20)"></path>
                            </g>
                            <g id="Group-98">
                                <mask id="mask-22" fill="white">
                                    <use xlink:href="#path-21"></use>
                                </mask>
                                <g id="Clip-97"></g>
                                <path d="M1.75886207,2.87093333 L5.63288506,0.4976 C5.73150575,0.5176 5.83012644,0.542933333 5.93127586,0.572266667 L2.05725287,2.94693333 C1.95610345,2.91626667 1.85621839,2.8936 1.75886207,2.87093333" id="Fill-96" fill="#212D3A" mask="url(#mask-22)"></path>
                            </g>
                            <g id="Group-101">
                                <mask id="mask-24" fill="white">
                                    <use xlink:href="#path-23"></use>
                                </mask>
                                <use id="Clip-100" fill="#250F8A" xlink:href="#path-23"></use>
                                <path d="M2.057,2.94653333 L5.93102299,0.5732 C6.04608046,0.607866667 6.1624023,0.6492 6.28125287,0.6972 L2.40722989,3.07186667 C2.28964368,3.0252 2.17205747,2.9812 2.057,2.94653333" id="Fill-99" fill="#250F8A" mask="url(#mask-24)"></path>
                            </g>
                            <g id="Group-104" transform="translate(1.896552, 0.000000)" fill="#250F8A">
                                <path d="M0.511183908,3.07146667 L4.38394253,0.698133333 C4.54198851,0.762133333 4.70129885,0.838133333 4.8644023,0.930133333 L0.99037931,3.30346667 C0.82854023,3.2128 0.669229885,3.13546667 0.511183908,3.07146667" id="Fill-102"></path>
                            </g>
                            <g id="Group-107" transform="translate(2.844828, 0.000000)" fill="#250F8A">
                                <path d="M0.0426091954,3.3032 L3.91536782,0.929866667 C3.98490805,0.965866667 4.05065517,1.00453333 4.12145977,1.04853333 L0.246172414,3.42053333 C0.177896552,3.38053333 0.110885057,3.33786667 0.0426091954,3.3032" id="Fill-105"></path>
                            </g>
                        </g>
                        <g id="Group-111" transform="translate(104.310345, 129.000000)">
                            <mask id="mask-26" fill="white">
                                <use xlink:href="#path-25"></use>
                            </mask>
                            <g id="Clip-110"></g>
                            <path d="M1.44629138,2.72134 L5.51401552,0.22794 C5.51136034,1.68814 5.02280862,2.71294 4.23687759,3.19594 L0.169153448,5.68794 C0.955084483,5.20494 1.44363621,4.17874 1.44629138,2.72134" id="Fill-109" fill="#250F8A" mask="url(#mask-26)"></path>
                        </g>
                        <g id="Group-116" transform="translate(3.793103, 1.000000)" fill="#250F8A">
                            <polygon id="Fill-112" points="102.377826 69.507668 106.205022 67.158068 106.042588 128.197508 102.212892 130.548428"></polygon>
                            <polygon id="Fill-114" points="0.555774442 2.386196 4.38422069 0.037916 102.093316 59.631956 98.2636203 61.981556"></polygon>
                        </g>
                        <g id="Group-168" transform="translate(101.465517, 60.000000)">
                            <g id="Group-119">
                                <mask id="mask-28" fill="white">
                                    <use xlink:href="#path-27"></use>
                                </mask>
                                <g id="Clip-118"></g>
                                <path d="M0.783953202,2.6184 L4.51961823,0.245066667 C5.08533251,0.601066667 5.62178571,1.0864 6.10947044,1.6584 L2.37380542,4.03173333 C1.8873399,3.45973333 1.34966749,2.97573333 0.783953202,2.6184" id="Fill-117" fill="#23313E" mask="url(#mask-28)"></path>
                            </g>
                            <g id="Group-122">
                                <mask id="mask-30" fill="white">
                                    <use xlink:href="#path-29"></use>
                                </mask>
                                <g id="Clip-121"></g>
                                <path d="M2.37404926,4.03106667 L6.10849507,1.65906667 C6.24260837,1.81373333 6.37184483,1.9764 6.49742365,2.14573333 L2.76175862,4.51906667 C2.63739901,4.34973333 2.50694335,4.18706667 2.37404926,4.03106667" id="Fill-120" fill="#22303D" mask="url(#mask-30)"></path>
                            </g>
                            <g id="Group-125">
                                <mask id="mask-32" fill="white">
                                    <use xlink:href="#path-31"></use>
                                </mask>
                                <g id="Clip-124"></g>
                                <path d="M2.76224631,4.51946667 L6.49669212,2.14613333 C6.5978867,2.27946667 6.69420443,2.4168 6.78808374,2.5568 L3.05241872,4.93146667 C2.95853941,4.79013333 2.86222167,4.6528 2.76224631,4.51946667" id="Fill-123" fill="#222E3B" mask="url(#mask-32)"></path>
                            </g>
                            <g id="Group-128">
                                <mask id="mask-34" fill="white">
                                    <use xlink:href="#path-33"></use>
                                </mask>
                                <g id="Clip-127"></g>
                                <path d="M3.05217488,4.93093333 L6.7878399,2.5576 C6.86952709,2.67893333 6.94877586,2.8016 7.02558621,2.9296 L3.29114039,5.30293333 C3.21433005,5.1776 3.13386207,5.05226667 3.05217488,4.93093333" id="Fill-126" fill="#212D3A" mask="url(#mask-34)"></path>
                            </g>
                            <g id="Group-131">
                                <mask id="mask-36" fill="white">
                                    <use xlink:href="#path-35"></use>
                                </mask>
                                <g id="Clip-130"></g>
                                <path d="M3.29150616,5.3032 L7.02595197,2.92986667 C7.09666626,3.04586667 7.16616133,3.1632 7.23199877,3.28053333 L3.49755296,5.6552 C3.43049631,5.53653333 3.36222044,5.4192 3.29150616,5.3032" id="Fill-129" fill="#202C38" mask="url(#mask-36)"></path>
                            </g>
                            <g id="Group-134">
                                <mask id="mask-38" fill="white">
                                    <use xlink:href="#path-37"></use>
                                </mask>
                                <g id="Clip-133"></g>
                                <path d="M3.49743103,5.6548 L7.23187685,3.28146667 C7.29649507,3.3948 7.35745567,3.50813333 7.41719704,3.62413333 L3.68031281,5.99746667 C3.62179064,5.88146667 3.56083005,5.76813333 3.49743103,5.6548" id="Fill-132" fill="#1F2B37" mask="url(#mask-38)"></path>
                            </g>
                            <g id="Group-137">
                                <mask id="mask-40" fill="white">
                                    <use xlink:href="#path-39"></use>
                                </mask>
                                <g id="Clip-136"></g>
                                <path d="M3.68080049,5.99733333 L7.41646552,3.624 C7.47376847,3.73466667 7.528633,3.84666667 7.58227833,3.96 L3.8466133,6.332 C3.79418719,6.22 3.73810345,6.10666667 3.68080049,5.99733333" id="Fill-135" fill="#1E2A35" mask="url(#mask-40)"></path>
                            </g>
                            <g id="Group-140">
                                <mask id="mask-42" fill="white">
                                    <use xlink:href="#path-41"></use>
                                </mask>
                                <g id="Clip-139"></g>
                                <path d="M3.84636946,6.33186667 L7.58203448,3.95986667 C7.63324138,4.0692 7.68444828,4.17853333 7.73199754,4.29053333 L3.99755172,6.6652 C3.94878325,6.55186667 3.89879557,6.4412 3.84636946,6.33186667" id="Fill-138" fill="#1D2934" mask="url(#mask-42)"></path>
                            </g>
                            <g id="Group-143">
                                <mask id="mask-44" fill="white">
                                    <use xlink:href="#path-43"></use>
                                </mask>
                                <g id="Clip-142"></g>
                                <path d="M3.99694212,6.6652 L7.73138793,4.29053333 C7.78137562,4.4012 7.82648645,4.5132 7.87037808,4.62386667 L4.13471305,6.9972 C4.09082143,6.88653333 4.04449138,6.77586667 3.99694212,6.6652" id="Fill-141" fill="#1D2732" mask="url(#mask-44)"></path>
                            </g>
                            <g id="Group-146">
                                <mask id="mask-46" fill="white">
                                    <use xlink:href="#path-45"></use>
                                </mask>
                                <g id="Clip-145"></g>
                                <path d="M4.13507882,6.99733333 L7.86952463,4.624 C7.91463547,4.736 7.95730788,4.84933333 7.99754187,4.96266667 L4.26065764,7.33733333 C4.22164286,7.22266667 4.17897044,7.11066667 4.13507882,6.99733333" id="Fill-144" fill="#1C2631" mask="url(#mask-46)"></path>
                            </g>
                            <g id="Group-149">
                                <mask id="mask-48" fill="white">
                                    <use xlink:href="#path-47"></use>
                                </mask>
                                <g id="Clip-148"></g>
                                <path d="M4.26065764,7.33706667 L7.99754187,4.9624 C8.03777586,5.07706667 8.07557143,5.19173333 8.113367,5.3064 L4.37770197,7.68106667 C4.34112562,7.56506667 4.30333005,7.4504 4.26065764,7.33706667" id="Fill-147" fill="#1B252F" mask="url(#mask-48)"></path>
                            </g>
                            <g id="Group-152">
                                <mask id="mask-50" fill="white">
                                    <use xlink:href="#path-49"></use>
                                </mask>
                                <g id="Clip-151"></g>
                                <path d="M4.37733621,7.68093333 L8.11300123,5.30626667 C8.1507968,5.42493333 8.18615394,5.5436 8.21785345,5.66226667 L4.48218842,8.03693333 C4.45048892,7.91693333 4.41513177,7.79826667 4.37733621,7.68093333" id="Fill-150" fill="#1A242E" mask="url(#mask-50)"></path>
                            </g>
                            <g id="Group-155">
                                <mask id="mask-52" fill="white">
                                    <use xlink:href="#path-51"></use>
                                </mask>
                                <g id="Clip-154"></g>
                                <path d="M4.48267611,8.0364 L8.21834113,5.66306667 C8.25369828,5.78706667 8.28539778,5.91373333 8.31465887,6.0404 L4.58021305,8.41373333 C4.55095197,8.28706667 4.51803325,8.16306667 4.48267611,8.0364" id="Fill-153" fill="#19232C" mask="url(#mask-52)"></path>
                            </g>
                            <g id="Group-158">
                                <mask id="mask-54" fill="white">
                                    <use xlink:href="#path-53"></use>
                                </mask>
                                <g id="Clip-157"></g>
                                <path d="M4.57972537,8.414 L8.31417118,6.04066667 C8.3470899,6.17666667 8.37513177,6.31266667 8.40073522,6.44866667 L4.6650702,8.82333333 C4.64068596,8.68733333 4.61020567,8.55133333 4.57972537,8.414" id="Fill-156" fill="#18222B" mask="url(#mask-54)"></path>
                            </g>
                            <g id="Group-161">
                                <mask id="mask-56" fill="white">
                                    <use xlink:href="#path-55"></use>
                                </mask>
                                <g id="Clip-160"></g>
                                <path d="M4.66482635,8.8228 L8.40049138,6.44946667 C8.42853325,6.6028 8.45291749,6.7548 8.47242488,6.90813333 L4.73797906,9.2828 C4.71725246,9.12946667 4.69408744,8.97613333 4.66482635,8.8228" id="Fill-159" fill="#182029" mask="url(#mask-56)"></path>
                            </g>
                            <g id="Group-164">
                                <mask id="mask-58" fill="white">
                                    <use xlink:href="#path-57"></use>
                                </mask>
                                <use id="Clip-163" fill="#250F8A" xlink:href="#path-57"></use>
                                <path d="M4.73749138,9.2824 L8.47193719,6.90906667 C8.49632143,7.0984 8.51339039,7.28773333 8.5243633,7.47706667 L4.78869828,9.8504 C4.77894458,9.6624 4.76187562,9.47306667 4.73749138,9.2824" id="Fill-162" fill="#250F8A" mask="url(#mask-58)"></path>
                            </g>
                            <g id="Group-167" transform="translate(4.741379, 7.000000)" fill="#250F8A">
                                <path d="M0.0473189655,2.85013333 L3.78298399,0.4768 C3.78908005,0.6008 3.79151847,0.723466667 3.79151847,0.846133333 L0.0570726601,3.21946667 C0.0570726601,3.09946667 0.0534150246,2.97413333 0.0473189655,2.85013333" id="Fill-165"></path>
                            </g>
                        </g>
                        <g id="Group-171" transform="translate(0.000000, 3.000000)" fill="#0AD7DD">
                            <path d="M102.012349,60.342216 C104.295172,61.733496 106.133176,65.098176 106.12568,67.867536 L105.961996,128.908296 C105.954499,131.677656 104.104,132.791736 101.822426,131.400456 L4.11333063,71.805096 C1.83175659,70.413816 -0.0074969574,67.047816 -6.77626358e-21,64.278456 L0.16368357,3.237696 C0.171180527,0.469656 2.02292901,-0.645744 4.30450304,0.746856 L102.012349,60.342216 Z" id="Fill-169"></path>
                        </g>
                        <g id="Group-229" transform="translate(6.637931, 10.000000)">
                            <g id="Group-177" fill="#FFFFFF">
                                <path d="M94.7722872,58.11296 L0.659232454,0.71012 L0.529285193,56.15276 L94.6235976,113.53448 L94.7722872,58.11296 Z M34.2705915,35.4116 L34.2955813,26.22704 L89.8430377,60.10616 L89.8180479,69.29072 L34.2705915,35.4116 Z M4.79380446,17.4332 L4.81879432,8.24864 L29.2176422,23.129 L29.1939018,32.31488 L29.0901939,70.67408 L4.69009655,55.78976 L4.79380446,17.4332 Z M34.1668836,73.76816 L34.2705915,35.4116 L89.8180479,69.29072 L89.71434,107.6486 L34.1668836,73.76816 Z" id="Fill-175"></path>
                            </g>
                            <g id="Group-180" transform="translate(41.724138, 86.000000)" fill="#250F8A">
                                <polygon id="Fill-178" points="8.615557 5.796192 0.620051927 0.920112 0.61255497 3.343632 8.60930953 8.221032"></polygon>
                            </g>
                            <g id="Group-183" transform="translate(4.741379, 8.000000)" fill="#FA7564">
                                <path d="M24.475888,15.129132 L0.0770401623,0.248772 L0.0532997972,9.433332 L24.4521477,24.315012 L24.475888,15.129132 Z M18.5682856,18.786852 L18.5832795,13.465932 L22.9665006,16.140252 L22.9515067,21.459852 L18.5682856,18.786852 Z M12.6394418,15.171372 L12.6531862,9.849132 L17.0364073,12.522132 L17.0226629,17.844372 L12.6394418,15.171372 Z M6.70934848,11.553252 L6.7230929,6.232332 L11.106314,8.905332 L11.0925696,14.226252 L6.70934848,11.553252 Z" id="Fill-181"></path>
                            </g>
                            <g id="Group-186" transform="translate(3.793103, 17.000000)" fill="#E5FDFD">
                                <path d="M25.4002986,15.315012 L1.00145071,0.433332 L0.897742799,38.789892 L25.2965907,53.674212 L25.4002986,15.315012 Z M2.35215254,14.573172 L2.3758929,5.614332 L23.8834142,18.733812 L23.8596738,27.690012 L2.35215254,14.573172 Z M2.29342637,36.260772 L2.30092333,33.962652 L23.8071951,47.079492 L23.8009477,49.378932 L2.29342637,36.260772 Z" id="Fill-184"></path>
                            </g>
                            <g id="Group-189" transform="translate(34.137931, 35.000000)" fill="#E5FDFD">
                                <path d="M55.679742,34.290456 L0.132285598,0.411336 L0.0285776876,38.769216 L55.5760341,72.649656 L55.679742,34.290456 Z M1.65041947,14.651496 L1.67415984,5.695296 L54.1278718,37.688136 L54.1041314,46.645656 L1.65041947,14.651496 Z M1.63667505,19.250376 L1.64292252,16.950936 L54.097884,48.945096 L54.0916365,51.243216 L1.63667505,19.250376 Z M1.62542961,23.854536 L1.63167708,21.556416 L54.085389,53.549256 L54.0791416,55.848696 L1.62542961,23.854536 Z M1.59419229,35.197296 L1.61793266,26.237136 L54.0728941,58.231296 L54.0491538,67.188816 L1.59419229,35.197296 Z" id="Fill-187"></path>
                            </g>
                            <g id="Group-192" transform="translate(34.137931, 26.000000)" fill="#FA7564">
                                <path d="M55.7047318,34.105896 L0.157275456,0.226776 L0.132285598,9.411336 L55.679742,43.290456 L55.7047318,34.105896 Z M49.7608941,37.742496 L49.775888,32.421576 L54.1591091,35.094576 L54.1453647,40.415496 L49.7608941,37.742496 Z M43.8320503,34.125696 L43.8457947,28.804776 L48.2290158,31.479096 L48.2140219,36.798696 L43.8320503,34.125696 Z M37.901957,30.508896 L37.9157014,25.186656 L42.2989225,27.860976 L42.2839286,33.181896 L37.901957,30.508896 Z" id="Fill-190"></path>
                            </g>
                            <g id="Group-195" transform="translate(83.448276, 58.000000)" fill="#FFCA00">
                                <polygon id="Fill-193" points="4.8490142 3.094576 0.465793103 0.421576 0.450799189 5.742496 4.83526978 8.415496"></polygon>
                            </g>
                            <g id="Group-198" transform="translate(77.758621, 54.000000)" fill="#FFFFFF">
                                <polygon id="Fill-196" points="4.60845112 3.478832 0.22523002 0.805832 0.210236105 6.125432 4.5934572 8.798432"></polygon>
                            </g>
                            <g id="Group-201" transform="translate(71.120690, 51.000000)" fill="#FFFFFF">
                                <polygon id="Fill-199" points="5.31553915 2.860448 0.932318053 0.187448 0.918573631 5.509688 5.30179473 8.181368"></polygon>
                            </g>
                            <g id="Group-204" transform="translate(22.758621, 21.000000)" fill="#FFCA00">
                                <polygon id="Fill-202" points="4.94925923 3.139724 0.566038134 0.466724 0.551044219 5.787644 4.93426531 8.459324"></polygon>
                            </g>
                            <g id="Group-207" transform="translate(17.068966, 17.000000)" fill="#FFFFFF">
                                <polygon id="Fill-205" points="4.70932089 3.52266 0.326099797 0.84966 0.311105882 6.1719 4.69432698 8.84358"></polygon>
                            </g>
                            <g id="Group-210" transform="translate(11.379310, 14.000000)" fill="#FFFFFF">
                                <polygon id="Fill-208" points="4.46875781 2.905596 0.0842872211 0.232596 0.0705427992 5.553516 4.45376389 8.226516"></polygon>
                            </g>
                            <g id="Group-213" transform="translate(5.689655, 22.000000)" fill="#FFFFFF">
                                <polygon id="Fill-211" points="21.9871124 13.733548 0.479591075 0.615388 0.45585071 9.574228 21.9621225 22.689748"></polygon>
                            </g>
                            <g id="Group-216" transform="translate(35.086207, 40.000000)" fill="#FFFFFF">
                                <polygon id="Fill-214" points="53.1799708 32.6884 0.726258824 0.69556 0.701268966 9.65176 53.1549809 41.64592"></polygon>
                            </g>
                            <g id="Group-219" transform="translate(35.086207, 61.000000)" fill="#FFFFFF">
                                <polygon id="Fill-217" points="53.1249931 32.2309 0.670031643 0.23806 0.646291278 9.1969 53.1000032 41.18842"></polygon>
                            </g>
                            <g id="Group-222" transform="translate(5.689655, 50.000000)" fill="#FFCA00">
                                <polygon id="Fill-220" points="21.9107684 14.08002 0.404496552 0.96186 0.396999594 3.2613 21.9045209 16.37814"></polygon>
                            </g>
                            <g id="Group-225" transform="translate(35.086207, 51.000000)" fill="#FFCA00">
                                <polygon id="Fill-223" points="53.1494832 32.944568 0.695771197 0.951728 0.688274239 3.251168 53.1432357 35.242688"></polygon>
                            </g>
                            <g id="Group-228" transform="translate(35.086207, 56.000000)" fill="#FFCA00">
                                <polygon id="Fill-226" points="53.1366134 32.549124 0.68290142 0.556284 0.676653955 2.854404 53.1316154 34.848564"></polygon>
                            </g>
                        </g>
                        <g id="Group-234" transform="translate(4.741379, 8.000000)">
                            <polygon id="Fill-230" fill="#172029" points="2.46699607 57.9697922 0.0214526408 59.2364811 0.176249673 0.954247778 2.59682584 2.43381444"></polygon>
                            <polygon id="Fill-232" fill="#263442" points="96.4769812 115.44904 96.4694911 118.216451 0.0209532955 59.2360844 2.46649673 57.9693956"></polygon>
                        </g>
                    </g>
                </g>
            </g>
        </g>
    </g>
</svg>