<?xml version="1.0" encoding="utf-8"?>
<!-- Generator: Adobe Illustrator 21.0.0, SVG Export Plug-In . SVG Version: 6.00 Build 0)  -->
<svg version="1.1" id="Layer_1" xmlns="http://www.w3.org/2000/svg" xmlns:xlink="http://www.w3.org/1999/xlink" x="0px" y="0px"
	 viewBox="0 0 554 114" style="enable-background:new 0 0 554 114;" xml:space="preserve">
<style type="text/css">
	.st0{fill:#2C285C;}
	.st1{font-family:'ArialRoundedMTBold';}
	.st2{font-size:112.5953px;}
	.st3{fill:#F0C957;}
	.st4{fill:url(#SVGID_1_);}
	.st5{font-size:91.7261px;}
</style>
<g>
	<g>
		<text transform="matrix(1 0 0 1 109.0459 94.2305)" class="st0 st1 st2">SMBeez</text>
		<path class="st3" d="M385,23.7l-9.5-9.5c-2.2-2.2-5.6-2.2-7.8,0c-2.2,2.2-2.2,5.6,0,7.8l10.9,10.3C380,28.9,382.2,26,385,23.7z"/>
		<path class="st3" d="M397.5,23.7c2.8,2.3,5,5.2,6.4,8.5L414.8,22c2.2-2.2,2.2-5.6,0-7.8c-2.2-2.2-5.6-2.2-7.8,0L397.5,23.7z"/>
	</g>
	<g>
		<path class="st0" d="M22.7,92.3v9.4c0,2.2,1.7,3.9,3.9,3.9c2.2,0,3.9-1.7,3.9-3.9v-9.4c-1.3,0.2-2.6,0.4-3.9,0.4
			C25.3,92.6,24,92.5,22.7,92.3z"/>
		<linearGradient id="SVGID_1_" gradientUnits="userSpaceOnUse" x1="3.5383" y1="54.7569" x2="104.4125" y2="54.7569">
			<stop  offset="0" style="stop-color:#2C285C"/>
			<stop  offset="1" style="stop-color:#6561AC"/>
		</linearGradient>
		<circle class="st4" cx="54" cy="54.8" r="50.4"/>
		<text transform="matrix(1 0 0 1 26.7212 83.9658)" class="st3 st1 st5">e</text>
		<path class="st3" d="M49.7,26.9l-7.8-7.8c-1.8-1.8-4.6-1.8-6.4,0c-1.8,1.8-1.8,4.6,0,6.4l8.9,8.4C45.6,31.2,47.4,28.8,49.7,26.9z"
			/>
		<path class="st3" d="M60,26.9c2.3,1.9,4.1,4.3,5.3,7l8.9-8.4c1.8-1.8,1.8-4.6,0-6.4c-1.8-1.8-4.6-1.8-6.4,0L60,26.9z"/>
	</g>
</g>
</svg>
