<svg enable-background="new 0 0 314 105" viewBox="0 0 314 105" xmlns="http://www.w3.org/2000/svg" xmlns:xlink="http://www.w3.org/1999/xlink"><clipPath id="a"><path d="m46.2 80.9h-34.1c-5.5 0-10-4.5-10-10v-34.2c0-5.5 4.5-10 10-10h34.1c5.5 0 10 4.5 10 10v34.1c0 5.6-4.5 10.1-10 10.1z"/></clipPath><clipPath id="b"><path d="m35.1 80.9h-27.7c-11 0-20-9-20-20v-14.2c0-11 9-20 20-20h27.7c11 0 20 9 20 20v14.1c0 11.1-9 20.1-20 20.1z"/></clipPath><clipPath id="c" clip-path="url(#b)"><path d="m35.1 80.9h-27.7c-11 0-20-9-20-20v-14.2c0-11 9-20 20-20h27.7c11 0 20 9 20 20v14.1c0 11.1-9 20.1-20 20.1z"/></clipPath><clipPath id="d" clip-path="url(#c)"><path d="m35.1 80.9h-27.7c-11 0-20-9-20-20v-14.2c0-11 9-20 20-20h27.7c11 0 20 9 20 20v14.1c0 11.1-9 20.1-20 20.1z"/></clipPath><clipPath id="e" clip-path="url(#d)"><path d="m35.1 80.9h-27.7c-11 0-20-9-20-20v-14.2c0-11 9-20 20-20h27.7c11 0 20 9 20 20v14.1c0 11.1-9 20.1-20 20.1z"/></clipPath><clipPath id="f" clip-path="url(#e)"><path d="m35.1 80.9h-27.7c-11 0-20-9-20-20v-14.2c0-11 9-20 20-20h27.7c11 0 20 9 20 20v14.1c0 11.1-9 20.1-20 20.1z"/></clipPath><clipPath id="g" clip-path="url(#f)"><path d="m35.1 80.9h-27.7c-11 0-20-9-20-20v-14.2c0-11 9-20 20-20h27.7c11 0 20 9 20 20v14.1c0 11.1-9 20.1-20 20.1z"/></clipPath><clipPath id="h" clip-path="url(#g)"><path d="m35.1 80.9h-27.7c-11 0-20-9-20-20v-14.2c0-11 9-20 20-20h27.7c11 0 20 9 20 20v14.1c0 11.1-9 20.1-20 20.1z"/></clipPath><clipPath id="i" clip-path="url(#h)"><path d="m35.1 80.9h-27.7c-11 0-20-9-20-20v-14.2c0-11 9-20 20-20h27.7c11 0 20 9 20 20v14.1c0 11.1-9 20.1-20 20.1z"/></clipPath><clipPath id="j" clip-path="url(#i)"><path d="m35.1 80.9h-27.7c-11 0-20-9-20-20v-14.2c0-11 9-20 20-20h27.7c11 0 20 9 20 20v14.1c0 11.1-9 20.1-20 20.1z"/></clipPath><clipPath id="k" clip-path="url(#j)"><path d="m35.1 80.9h-27.7c-11 0-20-9-20-20v-14.2c0-11 9-20 20-20h27.7c11 0 20 9 20 20v14.1c0 11.1-9 20.1-20 20.1z"/></clipPath><clipPath id="l" clip-path="url(#k)"><path d="m35.1 80.9h-27.7c-11 0-20-9-20-20v-14.2c0-11 9-20 20-20h27.7c11 0 20 9 20 20v14.1c0 11.1-9 20.1-20 20.1z"/></clipPath><clipPath id="m" clip-path="url(#l)"><path d="m35.1 80.9h-27.7c-11 0-20-9-20-20v-14.2c0-11 9-20 20-20h27.7c11 0 20 9 20 20v14.1c0 11.1-9 20.1-20 20.1z"/></clipPath><clipPath id="n" clip-path="url(#m)"><path d="m35.1 80.9h-27.7c-11 0-20-9-20-20v-14.2c0-11 9-20 20-20h27.7c11 0 20 9 20 20v14.1c0 11.1-9 20.1-20 20.1z"/></clipPath><clipPath id="o" clip-path="url(#n)"><path d="m35.1 80.9h-27.7c-11 0-20-9-20-20v-14.2c0-11 9-20 20-20h27.7c11 0 20 9 20 20v14.1c0 11.1-9 20.1-20 20.1z"/></clipPath><clipPath id="p" clip-path="url(#o)"><path d="m35.1 80.9h-27.7c-11 0-20-9-20-20v-14.2c0-11 9-20 20-20h27.7c11 0 20 9 20 20v14.1c0 11.1-9 20.1-20 20.1z"/></clipPath><clipPath id="q" clip-path="url(#p)"><path d="m35.1 80.9h-27.7c-11 0-20-9-20-20v-14.2c0-11 9-20 20-20h27.7c11 0 20 9 20 20v14.1c0 11.1-9 20.1-20 20.1z"/></clipPath><clipPath id="r" clip-path="url(#q)"><path d="m35.1 80.9h-27.7c-11 0-20-9-20-20v-14.2c0-11 9-20 20-20h27.7c11 0 20 9 20 20v14.1c0 11.1-9 20.1-20 20.1z"/></clipPath><clipPath id="s" clip-path="url(#r)"><path d="m35.1 80.9h-27.7c-11 0-20-9-20-20v-14.2c0-11 9-20 20-20h27.7c11 0 20 9 20 20v14.1c0 11.1-9 20.1-20 20.1z"/></clipPath><clipPath id="t" clip-path="url(#s)"><path d="m35.1 80.9h-27.7c-11 0-20-9-20-20v-14.2c0-11 9-20 20-20h27.7c11 0 20 9 20 20v14.1c0 11.1-9 20.1-20 20.1z"/></clipPath><clipPath id="u" clip-path="url(#t)"><path d="m35.1 80.9h-27.7c-11 0-20-9-20-20v-14.2c0-11 9-20 20-20h27.7c11 0 20 9 20 20v14.1c0 11.1-9 20.1-20 20.1z"/></clipPath><clipPath id="v" clip-path="url(#u)"><path d="m35.1 80.9h-27.7c-11 0-20-9-20-20v-14.2c0-11 9-20 20-20h27.7c11 0 20 9 20 20v14.1c0 11.1-9 20.1-20 20.1z"/></clipPath><clipPath id="w"><path d="m35.1 80.9h-27.7c-11 0-20-9-20-20v-14.2c0-11 9-20 20-20h27.7c11 0 20 9 20 20v14.1c0 11.1-9 20.1-20 20.1z"/></clipPath><clipPath id="x" clip-path="url(#w)"><path d="m35.1 80.9h-27.7c-11 0-20-9-20-20v-14.2c0-11 9-20 20-20h27.7c11 0 20 9 20 20v14.1c0 11.1-9 20.1-20 20.1z"/></clipPath><clipPath id="y"><path d="m48 80.5h-34.1c-5.5 0-10-4.5-10-10v-34.1c0-5.5 4.5-10 10-10h34c5.5 0 10 4.5 10 10v34c.1 5.6-4.4 10.1-9.9 10.1z"/></clipPath><clipPath id="z"><path d="m43.1 52.1c0-7.7-3.3-11.7-9.2-11.7-5.1 0-8.3 4-8.3 10.6 0 7.1 3.5 11.8 9.6 11.8 5 0 7.9-4.5 7.9-10.7zm6.8-1.3c0 11.7-6 18.8-15.4 18.8-4.1 0-7.5-1.4-10.3-3.7-1.8 6.4-5.9 12.3-13.7 12.6-3.2 0-6.6-.3-6.6-4.5v-2.5l5.2-.1c8.5-.2 9.7-5.4 9.7-12.5 0-2.2-.3-4.6-.3-6.9 0-9.4 5.1-17.9 16-18.4 9.1-.2 15.4 6.7 15.4 17.2z"/></clipPath><g enable-background="new" fill="#fff"><path d="m103.3 71.5c-1.7 0-2.9-1.1-2.9-3.2v-11.3c0-5.3-2-7.4-5.5-7.4-4.2 0-5.9 2.1-5.9 7.3v14.6h-1.5c-2.1 0-2.9-1.1-2.9-3.2v-11.3c0-4.6-2.1-7.4-5.7-7.4-3.8 0-5.7 2.2-5.7 7.4v14.4h-1.4c-1.8 0-3-1.1-3-3.2v-11.7c0-5.8 3.7-10.9 10.4-10.9 3.8 0 6.3 1.7 7.9 4.6 1.7-2.7 4.6-4.6 8-4.6 6.3 0 9.7 3.8 9.7 11.4v14.6h-1.5z"/><path d="m121.6 72c-5.2 0-9.7-3-9.7-7.6 0-5.5 4.3-8.5 11.9-8.5h3.4v-1.2c0-3.8-1.8-5.3-6-5.3-3.8 0-6.6 1.5-8.1 3.5h-.3v-2.1c0-2.4 3.1-5.4 8.8-5.4 6.4 0 9.9 3.4 9.9 9.6v8c0 5.2-2.8 9-9.9 9zm5.6-12.4h-3.5c-5.1 0-7.4 1.6-7.4 4.4 0 2.2 2.2 4 5.5 4 3.9 0 5.4-1.5 5.4-5.2z"/><path d="m146.4 72c-4.3 0-7.7-2-7.7-5.1v-1.9h.2c1.4 1.6 4.3 2.9 7.6 2.9 3.8 0 5.4-1.2 5.4-3.7 0-2.1-.9-3-6.7-4.3-4.8-1-7-2.6-7-6.4 0-4.1 3.8-8 10.1-8 3.8 0 7.4 1.7 7.4 4.8v1.9h-.2c-1.1-1.3-3.9-2.6-6.9-2.6-4.3 0-6 1.5-6 3.6 0 1.8 1 2.5 6.3 3.6 5 1.1 7.5 3.5 7.5 6.9 0 5.4-4.1 8.3-10 8.3z"/><path d="m183.7 71.5c-2.3 0-3.2-.9-3.2-2.8v-12c0-5.1-2.1-7-6-7-3 0-6.4 2.4-6.4 7.2v14.6h-1.2c-2.1 0-3-.9-3-2.8v-32.7h1.3c2 0 3.1.8 3.1 3.2v10.8c1.8-3.5 4.5-4.5 6.9-4.5 6 0 9.8 3.3 9.8 10.9v15h-1.3z"/><path d="m201.7 72c-5.2 0-9.7-3-9.7-7.6 0-5.5 4.3-8.5 11.9-8.5h3.4v-1.2c0-3.8-1.8-5.3-6-5.3-3.8 0-6.6 1.5-8.1 3.5h-.3v-2.1c0-2.4 3.1-5.4 8.8-5.4 6.4 0 9.9 3.4 9.9 9.6v8c0 5.2-2.8 9-9.9 9zm5.6-12.4h-3.5c-5.1 0-7.4 1.6-7.4 4.4 0 2.2 2.2 4 5.5 4 3.9 0 5.4-1.5 5.4-5.2z"/><path d="m232.4 51.4c-.8-.7-2.2-1.3-3.9-1.3-3.4 0-4.6 1.7-4.6 7.1v14.3h-1.9c-1.6 0-2.5-1.2-2.5-2.9v-11.7c0-7.1 3.4-10.8 8.3-10.8 3.5 0 4.8 1.5 4.8 3.2v2.1z"/><path d="m246.4 60.7h-6.3c.4 4.3 3.4 7.2 8.1 7.2 3.9 0 6.3-1.2 7.7-2.6h.2v1.9c0 2.7-2.9 4.8-8.6 4.8-7 0-11.9-5.4-11.9-12.7 0-8.2 5.2-13.7 11.9-13.7 5 0 9.6 3.8 9.6 8.8.1 4.5-2 6.3-10.7 6.3zm.7-11.3c-4.3 0-6.8 3.5-7 6.8l-.1 1.1 5.8-.1c6.1-.1 7.2-.7 7.2-2.6 0-2.7-1.9-5.2-5.9-5.2z"/><path d="m274 60.7h-6.3c.4 4.3 3.4 7.2 8.1 7.2 3.9 0 6.3-1.2 7.7-2.6h.2v1.9c0 2.7-2.9 4.8-8.6 4.8-7 0-11.9-5.4-11.9-12.7 0-8.2 5.2-13.7 11.9-13.7 5 0 9.6 3.8 9.6 8.8.1 4.5-2 6.3-10.7 6.3zm.7-11.3c-4.3 0-6.8 3.5-7 6.8l-.1 1.1 5.8-.1c6.1-.1 7.2-.7 7.2-2.6 0-2.7-1.9-5.2-5.9-5.2z"/><path d="m300.8 72c-5.4 0-10-2.9-10-6.7v-2.1h.3c2.4 3.1 5.7 4.5 10 4.5 4.6 0 7.3-1.8 7.3-5.8 0-3.8-3-5.9-9-5.9-1.7 0-2.3-.8-2.3-2.2v-1.3c8.4 0 10.9-1.5 10.9-5.7 0-3.6-2.6-5.6-7.8-5.6-4.9 0-7.8 2.1-9.1 4.5h-.3v-2c0-2.7 3.6-6.8 10.2-6.8 7.4 0 11.6 3.9 11.6 9.2 0 4.8-3 6.9-7.1 7.7 4.2.8 7.4 3.9 7.4 7.4.1 6.5-3.6 10.8-12.1 10.8z"/></g><g clip-path="url(#a)"><path clip-path="url(#v)" d="m-12.6 69.2 11.8 11.7h-11.8z" fill="#edcc0c"/><path clip-path="url(#v)" d="m-12.6 64.5 16.4 16.4h-4.6l-11.8-11.7z" fill="#edcc0c"/><path clip-path="url(#v)" d="m-12.6 59.8 21.1 21.1h-4.7l-16.4-16.4z" fill="#eecd0b"/><path clip-path="url(#v)" d="m-12.6 55.1 25.8 25.8h-4.7l-21.1-21.1z" fill="#efce0b"/><path clip-path="url(#v)" d="m-12.6 50.4 30.5 30.5h-4.7l-25.8-25.8z" fill="#f0cf0a"/><path clip-path="url(#v)" d="m-12.6 45.7 35.2 35.2h-4.7l-30.5-30.5z" fill="#f1d00a"/><path clip-path="url(#v)" d="m-12.6 41 39.9 39.9h-4.7l-35.2-35.2z" fill="#f2d109"/><path clip-path="url(#v)" d="m-12.6 36.4 44.6 44.5h-4.7l-39.9-39.9z" fill="#f2d208"/><path clip-path="url(#v)" d="m-12.6 32.9.6-.6 48.6 48.6h-4.6l-44.6-44.5z" fill="#f3d308"/><path clip-path="url(#v)" d="m-12 32.3 2.3-2.4 51 51h-4.7z" fill="#f4d407"/><path clip-path="url(#v)" d="m-9.7 29.9 2.4-2.3 53.3 53.3h-4.7z" fill="#f5d507"/><path clip-path="url(#v)" d="m-7.3 27.6.9-.9h2.9l53.3 53.3-.9.9h-2.9z" fill="#f6d706"/><path clip-path="url(#v)" d="m1.2 26.7 51 51-2.4 2.3-53.3-53.3z" fill="#f7d805"/><path clip-path="url(#v)" d="m5.9 26.7 48.6 48.6-2.3 2.4-51-51z" fill="#f8d905"/><path clip-path="url(#v)" d="m10.5 26.7 44.6 44.5v3.5l-.6.6-48.6-48.6z" fill="#f9da04"/><path clip-path="url(#v)" d="m15.2 26.7 39.9 39.9v4.6l-44.6-44.5z" fill="#fadb04"/><path clip-path="url(#v)" d="m19.9 26.7 35.2 35.2v4.7l-39.9-39.9z" fill="#fbdc03"/><path clip-path="url(#v)" d="m24.6 26.7 30.5 30.5v4.7l-35.2-35.2z" fill="#fbdd02"/><path clip-path="url(#v)" d="m29.3 26.7 25.8 25.8v4.7l-30.5-30.5z" fill="#fcde02"/><path clip-path="url(#v)" d="m34 26.7 21.1 21.1v4.7l-25.8-25.8z" fill="#fddf01"/><path clip-path="url(#v)" d="m38.7 26.7 16.4 16.4v4.7l-21.1-21.1z" fill="#fee001"/><g clip-path="url(#v)" fill="#ffe100"><path clip-path="url(#x)" d="m43.3 26.7 11.8 11.8v4.6l-16.4-16.4z"/><path clip-path="url(#x)" d="m55.1 38.5-11.8-11.8h11.8z"/></g><path d="m51 51c0 11.6-6.1 18.7-15.5 18.7-4.1 0-7.6-1.4-10.4-3.7-1.8 6.4-6 12.2-13.8 12.5-3.2 0-6.7-.3-6.7-4.5v-2.5l5.2-.1c8.6-.2 9.8-5.4 9.8-12.4 0-2.2-.3-4.6-.3-6.9 0-9.3 5.1-17.8 16.1-18.3 9.2-.1 15.6 6.8 15.6 17.2zm-6.9 1.3c0-7.6-3.3-11.6-9.3-11.6-5.1 0-8.4 4-8.4 10.5 0 7.1 3.5 11.7 9.7 11.7 5.1.1 8-4.4 8-10.6z" fill="#40508e"/></g><path clip-path="url(#y)" d="m-1.1 21.5h64v64h-64z" fill="#ffca00"/><path clip-path="url(#z)" d="m-1.1 28.5h56v55h-56z" fill="#333545"/></svg>