<?xml version="1.0" encoding="utf-8"?>
<!-- Generator: Adobe Illustrator 21.0.0, SVG Export Plug-In . SVG Version: 6.00 Build 0)  -->
<svg version="1.1" id="Layer_1" xmlns="http://www.w3.org/2000/svg" xmlns:xlink="http://www.w3.org/1999/xlink" x="0px" y="0px"
	 viewBox="0 0 314 105" style="enable-background:new 0 0 314 105;" xml:space="preserve">
<style type="text/css">
	.st0{fill:#333545;}
	.st1{fill:#FFE100;}
	.st2{fill:#333545;stroke:#333545;stroke-miterlimit:10;}
	.st3{fill:#FFFFFF;}
</style>
<g>
	<path class="st0" d="M126.1,89.8c-3.9-3.9-6.7-9-6.1-14c-0.6-7.2,3.3-13.5,10.1-17.9c6.1-3.9,13.5-5.6,21.2-5.6
		c16.8,0,31.9,10.7,31.4,23.5c0,13.5-14,24-31.9,24C141.2,99.2,132.3,95.9,126.1,89.8z M165.9,72.3c-2.2-2.2-7.2-5-14-5
		c-4.5,0-9,1.1-12.3,3.3c-2.2,1.1-3.3,3.3-3.3,4.5c0,1.1,1.1,2.2,1.7,2.8c2.2,2.2,7.2,5,14,5c10.1,0,15.7-4.5,15.7-7.8
		C167,74.6,166.4,73,165.9,72.3L165.9,72.3z"/>
</g>
<g>
	<path class="st0" d="M126.1,58.4c-3.9-3.9-6.7-9-6.1-14c-0.6-7.2,3.9-14,10.1-17.9c5.6-4.5,13.5-6.7,21.2-6.7
		c16.8,0,31.9,10.7,31.4,23.5c0,13.5-14,24-31.4,23.5C141.2,67.9,131.7,64,126.1,58.4z M165.3,40.5c-2.2-2.2-7.2-5-14-5
		c-5,0.6-9.6,1.7-12.3,3.3c-2.2,2.2-3.3,3.3-3.9,5c0,1.1,1.1,2.2,1.7,2.8c2.2,2.2,7.2,5,14,5c10.1,0,15.7-4.5,15.7-7.8
		C167.5,42.7,166.4,41.6,165.3,40.5z"/>
</g>
<g>
	<path class="st1" d="M151.3,56.6c-11.7,0-21-6.4-20.5-13.7c-0.5-8.3,9.3-14.2,20.5-14.7c11.7,0,21,6.4,20.5,13.7
		C172.3,50.3,162.6,56.1,151.3,56.6"/>
</g>
<g>
	<path class="st0" d="M108.3,65.6c-1.5-0.9-2.1-1.8-2.1-3.1c0-2.5,3.1-4.4,7.3-4.4h73.6c4.1,0,7.3,1.8,7.3,4.4
		c0,2.5-3.1,4.4-7.3,4.4h-73.6C111.5,66.9,109.9,66.6,108.3,65.6z M171.4,15.5c3.2-3.2,4.1-7.6,1.9-9.5c-1.9-2.1-6.2-1.4-9.5,1.9
		c-3.2,3-4.1,7.3-1.9,9.5C163.8,19.6,168.2,18.8,171.4,15.5 M130.6,15.1c3.2,3.2,7.6,4.1,9.5,1.9c2.1-2.1,1.4-6.5-1.9-9.5
		c-3.2-3.2-7.6-4.1-9.5-1.9C126.5,7.7,127.7,12.1,130.6,15.1"/>
</g>
<g>
	<path class="st2" d="M2.7,77.7c3.2,1.8,8.8,3.7,14.2,3.7c7.9,0,11.5-3.4,11.5-7.6c0-4.5-3.1-6.9-11.1-9.5C6.8,61.1,1.7,56,1.7,49.8
		c0-8.3,7.7-15.1,20.5-15.1c6,0,11.3,1.5,14.6,3.2l-2.7,6.8c-2.3-1.3-6.6-3-12.2-3c-6.4,0-9.9,3.2-9.9,7c0,4.2,3.6,6.2,11.3,8.7
		c10.3,3.4,15.6,7.9,15.6,15.5c0,9-8.1,15.4-22.2,15.4C10.2,88.4,4.2,87,0,84.9L2.7,77.7z"/>
</g>
<g>
	<path class="st2" d="M41.5,49.8c0-5.3-0.1-9.7-0.4-13.9h8.1l0.4,8.3h0.3c2.8-4.9,7.6-9.5,16-9.5c7,0,12.2,4.2,14.4,10.3h0.2
		c1.6-2.9,3.6-5.1,5.7-6.7c3.1-2.3,6.4-3.6,11.3-3.6c6.7,0,16.7,4.5,16.7,22.3v30.3h-9.1V58.2c0-9.9-3.6-15.8-11.1-15.8
		c-5.3,0-9.4,3.9-11,8.5c-0.4,1.3-0.7,3-0.7,4.7v31.8h-9.1V56.5c0-8.2-3.6-14.1-10.6-14.1c-5.8,0-10,4.7-11.5,9.3
		c-0.5,1.4-0.7,3-0.7,4.6v31h-9.1V49.8z"/>
</g>
<g>
	<path class="st2" d="M269.6,79.7l24.7-27.8c2.4-2.5,4.6-4.8,7.1-7.3v-0.2h-29.6v-6.9h41.7l-0.1,5.4L289,70.2c-2.3,2.6-4.5,5-7,7.4
		v0.2h32v6.8h-44.4V79.7z"/>
</g>
<path class="st1" d="M151.3,90.8c-11.7,0-21-6.4-20.5-13.7c0-7.8,9.3-14.2,20.5-13.7c11.7,0,21,6.4,20.5,13.7
	C172.3,84.4,163.1,90.8,151.3,90.8"/>
<path class="st0" d="M209.6,35.3c4.9,0,8.8,1.2,11.6,3.6c2.8,2.4,4.3,5.8,4.3,10c0,2.8-0.7,5.4-1.8,7.6c-1.2,2.2-2.8,3.9-4.6,5.1
	c-1.8,1.2-4,2.3-6.6,3c-4.3,1.3-9.2,2-14.8,2c0.2,3.5,1.3,6.2,3.3,8.4s5,3.1,9,3.1c4,0,8-1.4,12.2-4.3l3.7,7.9
	c-1.3,1.2-3.5,2.4-6.6,3.6c-3.1,1.2-6.6,1.8-10.6,1.8c-7.9,0-13.8-2.2-17.5-6.6c-3.7-4.4-5.5-10.4-5.5-18.1s2.1-14.1,6.3-19.3
	C196.1,37.9,202.1,35.3,209.6,35.3L209.6,35.3z"/>
<path class="st3" d="M205.2,57.6c2.4-0.4,4.6-1.4,6.6-2.8c2.1-1.4,3-3.3,3-5.2c0-4-2-6-5.9-6c-3.7,0-6.4,1.4-8.4,4.3
	c-2,2.9-3,6.4-3.3,10.4C200.2,58.3,202.8,58.1,205.2,57.6L205.2,57.6z"/>
<path class="st0" d="M250.5,35.3c4.9,0,8.8,1.2,11.6,3.6c2.8,2.4,4.3,5.8,4.3,10c0,2.8-0.7,5.4-1.8,7.6c-1.2,2.2-2.8,3.9-4.6,5.1
	c-1.8,1.2-4,2.3-6.6,3c-4.3,1.3-9.2,2-14.8,2c0.2,3.5,1.3,6.2,3.3,8.4s5,3.1,9,3.1c4,0,8-1.4,12.2-4.3l3.7,7.9
	c-1.3,1.2-3.5,2.4-6.6,3.6c-3.1,1.2-6.6,1.8-10.6,1.8c-7.9,0-13.8-2.2-17.5-6.6c-3.7-4.4-5.5-10.4-5.5-18.1s2.1-14.1,6.3-19.3
	C236.9,37.9,242.9,35.3,250.5,35.3L250.5,35.3z"/>
<path class="st3" d="M247.1,57.6c2.4-0.4,4.6-1.4,6.6-2.8c2.1-1.4,3-3.3,3-5.2c0-4-2-6-5.9-6c-3.7,0-6.4,1.4-8.4,4.3
	c-2,2.9-3,6.4-3.3,10.4C242.1,58.3,244.7,58.1,247.1,57.6z"/>
</svg>
