<?xml version="1.0" encoding="utf-8"?>
<!-- Generator: Adobe Illustrator 22.0.0, SVG Export Plug-In . SVG Version: 6.00 Build 0)  -->
<svg version="1.1" id="Layer_1" xmlns="http://www.w3.org/2000/svg" xmlns:xlink="http://www.w3.org/1999/xlink" x="0px" y="0px"
	 viewBox="0 0 314 105" style="enable-background:new 0 0 314 105;" xml:space="preserve">
<style type="text/css">
	.st0{fill:#FFE100;}
	.st1{clip-path:url(#SVGID_2_);}
	.st2{clip-path:url(#SVGID_4_);fill:#EDCC0C;}
	.st3{clip-path:url(#SVGID_4_);fill:#EECD0B;}
	.st4{clip-path:url(#SVGID_4_);fill:#EFCE0B;}
	.st5{clip-path:url(#SVGID_4_);fill:#F0CF0A;}
	.st6{clip-path:url(#SVGID_4_);fill:#F1D00A;}
	.st7{clip-path:url(#SVGID_4_);fill:#F2D109;}
	.st8{clip-path:url(#SVGID_4_);fill:#F2D208;}
	.st9{clip-path:url(#SVGID_4_);fill:#F3D308;}
	.st10{clip-path:url(#SVGID_4_);fill:#F4D407;}
	.st11{clip-path:url(#SVGID_4_);fill:#F5D507;}
	.st12{clip-path:url(#SVGID_4_);fill:#F6D706;}
	.st13{clip-path:url(#SVGID_4_);fill:#F7D805;}
	.st14{clip-path:url(#SVGID_4_);fill:#F8D905;}
	.st15{clip-path:url(#SVGID_4_);fill:#F9DA04;}
	.st16{clip-path:url(#SVGID_4_);fill:#FADB04;}
	.st17{clip-path:url(#SVGID_4_);fill:#FBDC03;}
	.st18{clip-path:url(#SVGID_4_);fill:#FBDD02;}
	.st19{clip-path:url(#SVGID_4_);fill:#FCDE02;}
	.st20{clip-path:url(#SVGID_4_);fill:#FDDF01;}
	.st21{clip-path:url(#SVGID_4_);fill:#FEE001;}
	.st22{clip-path:url(#SVGID_4_);fill:#FFE100;}
	.st23{enable-background:new    ;}
	.st24{fill:#40508E;}
</style>
<g>
	<path class="st0" d="M301.4,80.9h-34.2c-5.5,0-10-4.5-10-10V36.7c0-5.5,4.5-10,10-10h34.1c5.5,0,10,4.5,10,10v34.1
		C311.4,76.4,306.9,80.9,301.4,80.9z"/>
</g>
<g>
	<g>
		<defs>
			<path id="SVGID_1_" d="M297.2,80.9h-34.1c-5.5,0-10-4.5-10-10V36.7c0-5.5,4.5-10,10-10h34.1c5.5,0,10,4.5,10,10v34.1
				C307.2,76.4,302.7,80.9,297.2,80.9z"/>
		</defs>
		<clipPath id="SVGID_2_">
			<use xlink:href="#SVGID_1_"  style="overflow:visible;"/>
		</clipPath>
		<g class="st1">
			<g>
				<defs>
					<path id="SVGID_3_" d="M286.1,80.9h-27.7c-11,0-20-9-20-20V46.7c0-11,9-20,20-20h27.7c11,0,20,9,20,20v14.1
						C306.1,71.9,297.1,80.9,286.1,80.9z"/>
				</defs>
				<clipPath id="SVGID_4_">
					<use xlink:href="#SVGID_3_"  style="overflow:visible;"/>
				</clipPath>
				<polygon class="st2" points="238.4,69.2 250.1,80.9 238.4,80.9 				"/>
				<polygon class="st2" points="238.4,64.5 254.8,80.9 250.1,80.9 238.4,69.2 				"/>
				<polygon class="st3" points="238.4,59.8 259.5,80.9 254.8,80.9 238.4,64.5 				"/>
				<polygon class="st4" points="238.4,55.1 264.2,80.9 259.5,80.9 238.4,59.8 				"/>
				<polygon class="st5" points="238.4,50.4 268.9,80.9 264.2,80.9 238.4,55.1 				"/>
				<polygon class="st6" points="238.4,45.7 273.6,80.9 268.9,80.9 238.4,50.4 				"/>
				<polygon class="st7" points="238.4,41 278.3,80.9 273.6,80.9 238.4,45.7 				"/>
				<polygon class="st8" points="238.4,36.4 283,80.9 278.3,80.9 238.4,41 				"/>
				<polygon class="st9" points="238.4,32.9 239,32.3 287.6,80.9 283,80.9 238.4,36.4 				"/>
				<polygon class="st10" points="239,32.3 241.3,29.9 292.3,80.9 287.6,80.9 				"/>
				<polygon class="st11" points="241.3,29.9 243.7,27.6 297,80.9 292.3,80.9 				"/>
				<polygon class="st12" points="243.7,27.6 244.6,26.7 247.5,26.7 300.8,80 299.9,80.9 297,80.9 				"/>
				<polygon class="st13" points="252.2,26.7 303.2,77.7 300.8,80 247.5,26.7 				"/>
				<polygon class="st14" points="256.9,26.7 305.5,75.3 303.2,77.7 252.2,26.7 				"/>
				<polygon class="st15" points="261.5,26.7 306.1,71.2 306.1,74.7 305.5,75.3 256.9,26.7 				"/>
				<polygon class="st16" points="266.2,26.7 306.1,66.6 306.1,71.2 261.5,26.7 				"/>
				<polygon class="st17" points="270.9,26.7 306.1,61.9 306.1,66.6 266.2,26.7 				"/>
				<polygon class="st18" points="275.6,26.7 306.1,57.2 306.1,61.9 270.9,26.7 				"/>
				<polygon class="st19" points="280.3,26.7 306.1,52.5 306.1,57.2 275.6,26.7 				"/>
				<polygon class="st20" points="285,26.7 306.1,47.8 306.1,52.5 280.3,26.7 				"/>
				<polygon class="st21" points="289.7,26.7 306.1,43.1 306.1,47.8 285,26.7 				"/>
				<polygon class="st22" points="294.4,26.7 306.1,38.5 306.1,43.1 289.7,26.7 				"/>
				<polygon class="st22" points="306.1,38.5 294.4,26.7 306.1,26.7 				"/>
			</g>
		</g>
	</g>
</g>
<g class="st23">
	<path class="st24" d="M302,51c0,11.6-6.1,18.7-15.5,18.7c-4.1,0-7.6-1.4-10.4-3.7c-1.8,6.4-6,12.2-13.8,12.5
		c-3.2,0-6.7-0.3-6.7-4.5v-2.5l5.2-0.1c8.6-0.2,9.8-5.4,9.8-12.4c0-2.2-0.3-4.6-0.3-6.9c0-9.3,5.1-17.8,16.1-18.3
		C295.6,33.7,302,40.6,302,51z M295.1,52.3c0-7.6-3.3-11.6-9.3-11.6c-5.1,0-8.4,4-8.4,10.5c0,7.1,3.5,11.7,9.7,11.7
		C292.2,63,295.1,58.5,295.1,52.3z"/>
</g>
<g>
	<g>
		<path class="st24" d="M123,76.1c-2.3,1.5-4.9,2.2-7.7,2.2c-3.1,0-5.7-1-7.6-3c-1.8-1.8-2.7-4.1-2.7-6.9c0-1.9,0.5-3.6,1.5-5.1
			s2.6-2.8,4.9-4.1c-1.5-0.9-3.4-2.7-5.6-5.4c-0.3-0.3-0.5-0.6-0.7-0.8v-2.3c1.2-1.8,2.7-3.2,4.6-4.3c1.9-1.1,3.7-1.6,5.7-1.6
			c1.9,0,3.8,0.5,5.7,1.6c1.9,1.1,3.4,2.5,4.6,4.3V53c-1.7,2-3.7,3.7-6.1,5.2c0.9,0.1,1.7,0.2,2.5,0.2h8.7l0,4.8h-11.6
			c-1.5,0-2.8-0.3-4-1c-1.9,0.9-3.3,1.8-4.1,2.8c-0.8,1-1.2,2.1-1.2,3.4c0,1.5,0.5,2.7,1.6,3.6c1.1,0.9,2.5,1.4,4.3,1.4
			c2.6,0,5.1-0.7,7.4-2.2V76.1z M115.3,56.6c2-1.6,3.5-3.2,4.4-4.8c-1.6-1.5-3.1-2.2-4.5-2.2c-1.4,0-2.8,0.7-4.3,2.2
			C112,53.6,113.5,55.2,115.3,56.6z"/>
	</g>
	<g>
		<path class="st24" d="M130.5,72.2c-0.8,0-1.4-0.2-1.9-0.7c-0.5-0.5-0.7-1.1-0.7-2c0-1.7,0.9-2.6,2.6-2.6c0.8,0,1.4,0.2,1.9,0.7
			c0.5,0.5,0.7,1.1,0.7,1.9C133.1,71.3,132.2,72.2,130.5,72.2z M128.3,63.3v-4.8h3.6c1,0,1.7-0.2,2.2-0.7c0.4-0.4,0.6-1.2,0.6-2.2
			v-7.4l5-2.6v10.3c0,2.4-0.7,4.3-2.2,5.7c-1.3,1.2-3,1.8-5.1,1.8H128.3z M136.6,72.2c-0.8,0-1.4-0.2-1.9-0.7
			c-0.5-0.5-0.7-1.1-0.7-2c0-1.7,0.9-2.6,2.6-2.6c0.8,0,1.4,0.2,1.9,0.7c0.5,0.5,0.7,1.1,0.7,1.9C139.2,71.3,138.4,72.2,136.6,72.2z
			"/>
	</g>
	<g>
		<path class="st24" d="M156.8,60.8c0,3.1-0.9,5.6-2.6,7.5c-1.6,1.8-3.7,2.7-6.2,2.7c-1.7,0-3.3-0.4-4.9-1.3v-4.4
			c1.4,0.8,2.7,1.2,4.1,1.2c1.5,0,2.6-0.5,3.4-1.4c0.8-0.9,1.2-2.3,1.2-3.9V48.2l5-2.7V60.8z"/>
	</g>
	<g>
		<path class="st24" d="M171.3,63.3c-2.4,0-4.3-0.8-5.6-2.3c-1.1-1.3-1.7-3.1-1.7-5.2V40.2l5-2.6v18.1c0,1,0.2,1.8,0.6,2.2
			c0.4,0.4,1.1,0.7,2.2,0.7h3.6v4.8H171.3z"/>
	</g>
	<g>
		<path class="st24" d="M173,63.3v-4.8h7v4.8H173z"/>
	</g>
	<g>
		<path class="st24" d="M177.6,63.3v-4.8h4.2c1,0,1.7-0.2,2.2-0.7c0.4-0.4,0.7-1.2,0.7-2.2v-5.3l5-2.6v7.9c0,1,0.2,1.8,0.6,2.2
			s1.1,0.7,2.2,0.7h2.7c1,0,1.7-0.2,2.2-0.7s0.6-1.2,0.6-2.2v-6.3l5-2.7v9c0,1,0.2,1.8,0.7,2.2c0.4,0.4,1.2,0.7,2.2,0.7h2.7
			c1,0,1.7-0.2,2.2-0.7c0.4-0.4,0.6-1.2,0.6-2.2v-7.4l5-2.6V55c0,1.3,0.3,2.2,0.8,2.7c0.5,0.5,1.4,0.8,2.6,0.8h3.7v4.8h-4
			c-2.2,0-4-0.6-5.4-1.9c-1.2,1.3-2.8,1.9-4.8,1.9h-4c-2,0-3.6-0.6-4.8-1.8c-1.1,1.1-2.7,1.7-4.6,1.8h-4c-2,0-3.6-0.6-4.8-1.8
			c-1.3,1.2-2.9,1.8-4.8,1.8H177.6z M197.3,42c-0.8,0-1.4-0.2-1.9-0.7c-0.5-0.5-0.7-1.1-0.7-2c0-0.8,0.2-1.4,0.7-1.9
			c0.5-0.5,1.1-0.7,1.9-0.7c0.8,0,1.4,0.2,1.9,0.7c0.5,0.5,0.7,1.1,0.7,1.9C199.9,41.1,199.1,42,197.3,42z M200.4,36.2
			c-1.6,0-2.4-0.8-2.4-2.4c0-1.6,0.8-2.4,2.4-2.4c1.6,0,2.4,0.8,2.4,2.4C202.7,35.3,201.9,36.2,200.4,36.2z M203.5,42
			c-0.8,0-1.4-0.2-1.9-0.7c-0.5-0.5-0.7-1.1-0.7-2c0-0.8,0.2-1.4,0.7-1.9c0.5-0.5,1.1-0.7,1.9-0.7c0.8,0,1.4,0.2,1.9,0.7
			c0.5,0.5,0.7,1.1,0.7,1.9C206.1,41.1,205.2,42,203.5,42z"/>
	</g>
	<g>
		<path class="st24" d="M227.6,52.3c0-2.4,0.7-4.3,2.2-5.6c1.3-1.2,3-1.8,5-1.8c2.6,0,4.7,1,6.2,2.9c1.3,1.6,1.9,3.7,1.9,6.3
			c0,3-0.8,5.3-2.4,7c-1.4,1.5-3.2,2.2-5.4,2.2c-2.1,0-3.9-0.5-5.2-1.4c-1.3,0.9-2.8,1.4-4.6,1.4h-4.1v-4.8h3.6c1,0,1.7-0.2,2.2-0.7
			s0.6-1.2,0.6-2.2V52.3z M232.6,56.2c0,1.5,0.8,2.2,2.4,2.2c2,0,3-1.5,3-4.6c0-2.9-1-4.4-3.1-4.4c-1.5,0-2.2,0.9-2.2,2.6V56.2z"/>
	</g>
</g>
</svg>
