<?xml version="1.0" encoding="utf-8"?>
<!-- Generator: Adobe Illustrator 22.0.0, SVG Export Plug-In . SVG Version: 6.00 Build 0)  -->
<svg version="1.1" id="Layer_1" xmlns="http://www.w3.org/2000/svg" xmlns:xlink="http://www.w3.org/1999/xlink" x="0px" y="0px"
	 viewBox="0 0 314 105" style="enable-background:new 0 0 314 105;" xml:space="preserve">
<style type="text/css">
	.st0{fill:#FFE100;}
	.st1{enable-background:new    ;}
	.st2{fill:#40508E;}
	.st3{clip-path:url(#SVGID_2_);}
	.st4{clip-path:url(#SVGID_4_);fill:#EDCC0C;}
	.st5{clip-path:url(#SVGID_4_);fill:#EECD0B;}
	.st6{clip-path:url(#SVGID_4_);fill:#EFCE0B;}
	.st7{clip-path:url(#SVGID_4_);fill:#F0CF0A;}
	.st8{clip-path:url(#SVGID_4_);fill:#F1D00A;}
	.st9{clip-path:url(#SVGID_4_);fill:#F2D109;}
	.st10{clip-path:url(#SVGID_4_);fill:#F2D208;}
	.st11{clip-path:url(#SVGID_4_);fill:#F3D308;}
	.st12{clip-path:url(#SVGID_4_);fill:#F4D407;}
	.st13{clip-path:url(#SVGID_4_);fill:#F5D507;}
	.st14{clip-path:url(#SVGID_4_);fill:#F6D706;}
	.st15{clip-path:url(#SVGID_4_);fill:#F7D805;}
	.st16{clip-path:url(#SVGID_4_);fill:#F8D905;}
	.st17{clip-path:url(#SVGID_4_);fill:#F9DA04;}
	.st18{clip-path:url(#SVGID_4_);fill:#FADB04;}
	.st19{clip-path:url(#SVGID_4_);fill:#FBDC03;}
	.st20{clip-path:url(#SVGID_4_);fill:#FBDD02;}
	.st21{clip-path:url(#SVGID_4_);fill:#FCDE02;}
	.st22{clip-path:url(#SVGID_4_);fill:#FDDF01;}
	.st23{clip-path:url(#SVGID_4_);fill:#FEE001;}
	.st24{clip-path:url(#SVGID_4_);fill:#FFE100;}
</style>
<g>
	<path class="st0" d="M50.4,80.9H16.2c-5.5,0-10-4.5-10-10V36.7c0-5.5,4.5-10,10-10h34.1c5.5,0,10,4.5,10,10v34.1
		C60.4,76.4,55.9,80.9,50.4,80.9z"/>
</g>
<g>
	<g class="st1">
		<g>
			<path class="st2" d="M103.3,71.5c-1.7,0-2.9-1.1-2.9-3.2V57c0-5.3-2-7.4-5.5-7.4c-4.2,0-5.9,2.1-5.9,7.3v14.6h-1.5
				c-2.1,0-2.9-1.1-2.9-3.2V57c0-4.6-2.1-7.4-5.7-7.4c-3.8,0-5.7,2.2-5.7,7.4v14.4h-1.4c-1.8,0-3-1.1-3-3.2V56.5
				c0-5.8,3.7-10.9,10.4-10.9c3.8,0,6.3,1.7,7.9,4.6c1.7-2.7,4.6-4.6,8-4.6c6.3,0,9.7,3.8,9.7,11.4v14.6H103.3z"/>
		</g>
		<g>
			<path class="st2" d="M121.6,72c-5.2,0-9.7-3-9.7-7.6c0-5.5,4.3-8.5,11.9-8.5h3.4v-1.2c0-3.8-1.8-5.3-6-5.3
				c-3.8,0-6.6,1.5-8.1,3.5h-0.3v-2.1c0-2.4,3.1-5.4,8.8-5.4c6.4,0,9.9,3.4,9.9,9.6v8C131.5,68.2,128.7,72,121.6,72z M127.2,59.6
				h-3.5c-5.1,0-7.4,1.6-7.4,4.4c0,2.2,2.2,4,5.5,4c3.9,0,5.4-1.5,5.4-5.2V59.6z"/>
		</g>
		<g>
			<path class="st2" d="M146.4,72c-4.3,0-7.7-2-7.7-5.1V65h0.2c1.4,1.6,4.3,2.9,7.6,2.9c3.8,0,5.4-1.2,5.4-3.7c0-2.1-0.9-3-6.7-4.3
				c-4.8-1-7-2.6-7-6.4c0-4.1,3.8-8,10.1-8c3.8,0,7.4,1.7,7.4,4.8v1.9h-0.2c-1.1-1.3-3.9-2.6-6.9-2.6c-4.3,0-6,1.5-6,3.6
				c0,1.8,1,2.5,6.3,3.6c5,1.1,7.5,3.5,7.5,6.9C156.4,69.1,152.3,72,146.4,72z"/>
		</g>
		<g>
			<path class="st2" d="M183.7,71.5c-2.3,0-3.2-0.9-3.2-2.8v-12c0-5.1-2.1-7-6-7c-3,0-6.4,2.4-6.4,7.2v14.6h-1.2c-2.1,0-3-0.9-3-2.8
				V36h1.3c2,0,3.1,0.8,3.1,3.2V50c1.8-3.5,4.5-4.5,6.9-4.5c6,0,9.8,3.3,9.8,10.9v15H183.7z"/>
		</g>
		<g>
			<path class="st2" d="M201.7,72c-5.2,0-9.7-3-9.7-7.6c0-5.5,4.3-8.5,11.9-8.5h3.4v-1.2c0-3.8-1.8-5.3-6-5.3
				c-3.8,0-6.6,1.5-8.1,3.5h-0.3v-2.1c0-2.4,3.1-5.4,8.8-5.4c6.4,0,9.9,3.4,9.9,9.6v8C211.6,68.2,208.8,72,201.7,72z M207.3,59.6
				h-3.5c-5.1,0-7.4,1.6-7.4,4.4c0,2.2,2.2,4,5.5,4c3.9,0,5.4-1.5,5.4-5.2V59.6z"/>
		</g>
		<g>
			<path class="st2" d="M232.4,51.4c-0.8-0.7-2.2-1.3-3.9-1.3c-3.4,0-4.6,1.7-4.6,7.1v14.3H222c-1.6,0-2.5-1.2-2.5-2.9V56.9
				c0-7.1,3.4-10.8,8.3-10.8c3.5,0,4.8,1.5,4.8,3.2v2.1H232.4z"/>
		</g>
		<g>
			<path class="st2" d="M246.4,60.7h-6.3c0.4,4.3,3.4,7.2,8.1,7.2c3.9,0,6.3-1.2,7.7-2.6h0.2v1.9c0,2.7-2.9,4.8-8.6,4.8
				c-7,0-11.9-5.4-11.9-12.7c0-8.2,5.2-13.7,11.9-13.7c5,0,9.6,3.8,9.6,8.8C257.2,58.9,255.1,60.7,246.4,60.7z M247.1,49.4
				c-4.3,0-6.8,3.5-7,6.8l-0.1,1.1l5.8-0.1c6.1-0.1,7.2-0.7,7.2-2.6C253,51.9,251.1,49.4,247.1,49.4z"/>
		</g>
		<g>
			<path class="st2" d="M274,60.7h-6.3c0.4,4.3,3.4,7.2,8.1,7.2c3.9,0,6.3-1.2,7.7-2.6h0.2v1.9c0,2.7-2.9,4.8-8.6,4.8
				c-7,0-11.9-5.4-11.9-12.7c0-8.2,5.2-13.7,11.9-13.7c5,0,9.6,3.8,9.6,8.8C284.8,58.9,282.7,60.7,274,60.7z M274.7,49.4
				c-4.3,0-6.8,3.5-7,6.8l-0.1,1.1l5.8-0.1c6.1-0.1,7.2-0.7,7.2-2.6C280.6,51.9,278.7,49.4,274.7,49.4z"/>
		</g>
		<g>
			<path class="st2" d="M300.8,72c-5.4,0-10-2.9-10-6.7v-2.1h0.3c2.4,3.1,5.7,4.5,10,4.5c4.6,0,7.3-1.8,7.3-5.8c0-3.8-3-5.9-9-5.9
				c-1.7,0-2.3-0.8-2.3-2.2v-1.3c8.4,0,10.9-1.5,10.9-5.7c0-3.6-2.6-5.6-7.8-5.6c-4.9,0-7.8,2.1-9.1,4.5h-0.3v-2
				c0-2.7,3.6-6.8,10.2-6.8c7.4,0,11.6,3.9,11.6,9.2c0,4.8-3,6.9-7.1,7.7c4.2,0.8,7.4,3.9,7.4,7.4C313,67.7,309.3,72,300.8,72z"/>
		</g>
	</g>
</g>
<g>
	<g>
		<defs>
			<path id="SVGID_1_" d="M46.2,80.9H12.1c-5.5,0-10-4.5-10-10V36.7c0-5.5,4.5-10,10-10h34.1c5.5,0,10,4.5,10,10v34.1
				C56.2,76.4,51.7,80.9,46.2,80.9z"/>
		</defs>
		<clipPath id="SVGID_2_">
			<use xlink:href="#SVGID_1_"  style="overflow:visible;"/>
		</clipPath>
		<g class="st3">
			<g>
				<defs>
					<path id="SVGID_3_" d="M35.1,80.9H7.4c-11,0-20-9-20-20V46.7c0-11,9-20,20-20h27.7c11,0,20,9,20,20v14.1
						C55.1,71.9,46.1,80.9,35.1,80.9z"/>
				</defs>
				<clipPath id="SVGID_4_">
					<use xlink:href="#SVGID_3_"  style="overflow:visible;"/>
				</clipPath>
				<polygon class="st4" points="-12.6,69.2 -0.8,80.9 -12.6,80.9 				"/>
				<polygon class="st4" points="-12.6,64.5 3.8,80.9 -0.8,80.9 -12.6,69.2 				"/>
				<polygon class="st5" points="-12.6,59.8 8.5,80.9 3.8,80.9 -12.6,64.5 				"/>
				<polygon class="st6" points="-12.6,55.1 13.2,80.9 8.5,80.9 -12.6,59.8 				"/>
				<polygon class="st7" points="-12.6,50.4 17.9,80.9 13.2,80.9 -12.6,55.1 				"/>
				<polygon class="st8" points="-12.6,45.7 22.6,80.9 17.9,80.9 -12.6,50.4 				"/>
				<polygon class="st9" points="-12.6,41 27.3,80.9 22.6,80.9 -12.6,45.7 				"/>
				<polygon class="st10" points="-12.6,36.4 32,80.9 27.3,80.9 -12.6,41 				"/>
				<polygon class="st11" points="-12.6,32.9 -12,32.3 36.6,80.9 32,80.9 -12.6,36.4 				"/>
				<polygon class="st12" points="-12,32.3 -9.7,29.9 41.3,80.9 36.6,80.9 				"/>
				<polygon class="st13" points="-9.7,29.9 -7.3,27.6 46,80.9 41.3,80.9 				"/>
				<polygon class="st14" points="-7.3,27.6 -6.4,26.7 -3.5,26.7 49.8,80 48.9,80.9 46,80.9 				"/>
				<polygon class="st15" points="1.2,26.7 52.2,77.7 49.8,80 -3.5,26.7 				"/>
				<polygon class="st16" points="5.9,26.7 54.5,75.3 52.2,77.7 1.2,26.7 				"/>
				<polygon class="st17" points="10.5,26.7 55.1,71.2 55.1,74.7 54.5,75.3 5.9,26.7 				"/>
				<polygon class="st18" points="15.2,26.7 55.1,66.6 55.1,71.2 10.5,26.7 				"/>
				<polygon class="st19" points="19.9,26.7 55.1,61.9 55.1,66.6 15.2,26.7 				"/>
				<polygon class="st20" points="24.6,26.7 55.1,57.2 55.1,61.9 19.9,26.7 				"/>
				<polygon class="st21" points="29.3,26.7 55.1,52.5 55.1,57.2 24.6,26.7 				"/>
				<polygon class="st22" points="34,26.7 55.1,47.8 55.1,52.5 29.3,26.7 				"/>
				<polygon class="st23" points="38.7,26.7 55.1,43.1 55.1,47.8 34,26.7 				"/>
				<polygon class="st24" points="43.3,26.7 55.1,38.5 55.1,43.1 38.7,26.7 				"/>
				<polygon class="st24" points="55.1,38.5 43.3,26.7 55.1,26.7 				"/>
			</g>
		</g>
	</g>
</g>
<g class="st1">
	<path class="st2" d="M51,51c0,11.6-6.1,18.7-15.5,18.7c-4.1,0-7.6-1.4-10.4-3.7c-1.8,6.4-6,12.2-13.8,12.5c-3.2,0-6.7-0.3-6.7-4.5
		v-2.5l5.2-0.1c8.6-0.2,9.8-5.4,9.8-12.4c0-2.2-0.3-4.6-0.3-6.9c0-9.3,5.1-17.8,16.1-18.3C44.6,33.7,51,40.6,51,51z M44.1,52.3
		c0-7.6-3.3-11.6-9.3-11.6c-5.1,0-8.4,4-8.4,10.5c0,7.1,3.5,11.7,9.7,11.7C41.2,63,44.1,58.5,44.1,52.3z"/>
</g>
</svg>
