<?xml version="1.0" encoding="UTF-8"?>
<svg width="206px" height="54px" viewBox="0 0 206 54" version="1.1" xmlns="http://www.w3.org/2000/svg" xmlns:xlink="http://www.w3.org/1999/xlink">
    <!-- Generator: Sketch 51.2 (57519) - http://www.bohemiancoding.com/sketch -->
    <title>masharee3-logo-2018-new ar</title>
    <desc>Created with Sketch.</desc>
    <defs></defs>
    <g id="Page-1" stroke="none" stroke-width="1" fill="none" fill-rule="evenodd">
        <g id="Landing-Page" transform="translate(-1177.000000, -42.000000)" fill-rule="nonzero">
            <g id="masharee3-logo-2018-new-ar" transform="translate(1177.000000, 42.000000)">
                <path d="M196.116966,54 L161.981214,54 C156.491546,54 152,49.5166052 152,44.0369004 L152,9.96309963 C152,4.48339483 156.491546,0 161.981214,0 L196.017154,0 C201.506822,0 205.998368,4.48339483 205.998368,9.96309963 L205.998368,43.9372694 C206.09818,49.5166052 201.606634,54 196.116966,54 Z" id="Shape" fill="#FFCA00"></path>
                <path d="M197,24.3161006 C197,35.9936727 190.952586,43.1411522 181.633621,43.1411522 C177.568966,43.1411522 174.099138,41.73179 171.323276,39.4164094 C169.538793,45.8592078 165.375,51.6979938 157.642241,52 C154.469828,52 151,51.6979938 151,47.4699074 L151,44.9531892 L156.155172,44.8525205 C164.681034,44.6511831 165.87069,39.4164094 165.87069,32.3695986 C165.87069,30.1548867 165.573276,27.7388373 165.573276,25.4234566 C165.573276,16.0612651 170.62931,7.50442351 181.534483,7.00107988 C190.655172,6.90041116 197,13.8465532 197,24.3161006 Z M190.159483,25.624794 C190.159483,17.9739709 186.887931,13.9472219 180.939655,13.9472219 C175.883621,13.9472219 172.612069,17.9739709 172.612069,24.517438 C172.612069,31.6649175 176.081897,36.2956789 182.228448,36.2956789 C187.284483,36.3963476 190.159483,31.866255 190.159483,25.624794 Z" id="Shape" fill="#333545"></path>
                <g id="Group" transform="translate(0.000000, 4.000000)" fill="#FFFFFF">
                    <path d="M18,45.1 C15.7,46.6 13.1,47.3 10.3,47.3 C7.2,47.3 4.6,46.3 2.7,44.3 C0.9,42.5 0,40.2 0,37.4 C0,35.5 0.5,33.8 1.5,32.3 C2.5,30.8 4.1,29.5 6.4,28.2 C4.9,27.3 3,25.5 0.8,22.8 C0.5,22.5 0.3,22.2 0.1,22 L0.1,19.7 C1.3,17.9 2.8,16.5 4.7,15.4 C6.6,14.3 8.4,13.8 10.4,13.8 C12.3,13.8 14.2,14.3 16.1,15.4 C18,16.5 19.5,17.9 20.7,19.7 L20.7,22 C19,24 17,25.7 14.6,27.2 C15.5,27.3 16.3,27.4 17.1,27.4 L25.8,27.4 L25.8,32.2 L14.2,32.2 C12.7,32.2 11.4,31.9 10.2,31.2 C8.3,32.1 6.9,33 6.1,34 C5.3,35 4.9,36.1 4.9,37.4 C4.9,38.9 5.4,40.1 6.5,41 C7.6,41.9 9,42.4 10.8,42.4 C13.4,42.4 15.9,41.7 18.2,40.2 L18.2,45.1 L18,45.1 Z M10.3,25.6 C12.3,24 13.8,22.4 14.7,20.8 C13.1,19.3 11.6,18.6 10.2,18.6 C8.8,18.6 7.4,19.3 5.9,20.8 C7,22.6 8.5,24.2 10.3,25.6 Z" id="Shape"></path>
                    <path d="M25.5,41.2 C24.7,41.2 24.1,41 23.6,40.5 C23.1,40 22.9,39.4 22.9,38.5 C22.9,36.8 23.8,35.9 25.5,35.9 C26.3,35.9 26.9,36.1 27.4,36.6 C27.9,37.1 28.1,37.7 28.1,38.5 C28.1,40.3 27.2,41.2 25.5,41.2 Z M23.3,32.3 L23.3,27.5 L26.9,27.5 C27.9,27.5 28.6,27.3 29.1,26.8 C29.5,26.4 29.7,25.6 29.7,24.6 L29.7,17.2 L34.7,14.6 L34.7,24.9 C34.7,27.3 34,29.2 32.5,30.6 C31.2,31.8 29.5,32.4 27.4,32.4 L23.3,32.4 L23.3,32.3 Z M31.6,41.2 C30.8,41.2 30.2,41 29.7,40.5 C29.2,40 29,39.4 29,38.5 C29,36.8 29.9,35.9 31.6,35.9 C32.4,35.9 33,36.1 33.5,36.6 C34,37.1 34.2,37.7 34.2,38.5 C34.2,40.3 33.4,41.2 31.6,41.2 Z" id="Shape"></path>
                    <path d="M51.8,29.8 C51.8,32.9 50.9,35.4 49.2,37.3 C47.6,39.1 45.5,40 43,40 C41.3,40 39.7,39.6 38.1,38.7 L38.1,34.3 C39.5,35.1 40.8,35.5 42.2,35.5 C43.7,35.5 44.8,35 45.6,34.1 C46.4,33.2 46.8,31.8 46.8,30.2 L46.8,17.2 L51.8,14.5 L51.8,29.8 Z" id="Shape"></path>
                    <path d="M66.3,32.3 C63.9,32.3 62,31.5 60.7,30 C59.6,28.7 59,26.9 59,24.8 L59,9.2 L64,6.6 L64,24.7 C64,25.7 64.2,26.5 64.6,26.9 C65,27.3 65.7,27.6 66.8,27.6 L70.4,27.6 L70.4,32.4 L66.3,32.4 L66.3,32.3 Z" id="Shape"></path>
                    <polygon id="Shape" points="68 32.3 68 27.5 75 27.5 75 32.3"></polygon>
                    <path d="M72.6,32.3 L72.6,27.5 L76.8,27.5 C77.8,27.5 78.5,27.3 79,26.8 C79.4,26.4 79.7,25.6 79.7,24.6 L79.7,19.3 L84.7,16.7 L84.7,24.6 C84.7,25.6 84.9,26.4 85.3,26.8 C85.7,27.2 86.4,27.5 87.5,27.5 L90.2,27.5 C91.2,27.5 91.9,27.3 92.4,26.8 C92.9,26.3 93,25.6 93,24.6 L93,18.3 L98,15.6 L98,24.6 C98,25.6 98.2,26.4 98.7,26.8 C99.1,27.2 99.9,27.5 100.9,27.5 L103.6,27.5 C104.6,27.5 105.3,27.3 105.8,26.8 C106.2,26.4 106.4,25.6 106.4,24.6 L106.4,17.2 L111.4,14.6 L111.4,24 C111.4,25.3 111.7,26.2 112.2,26.7 C112.7,27.2 113.6,27.5 114.8,27.5 L118.5,27.5 L118.5,32.3 L114.5,32.3 C112.3,32.3 110.5,31.7 109.1,30.4 C107.9,31.7 106.3,32.3 104.3,32.3 L100.3,32.3 C98.3,32.3 96.7,31.7 95.5,30.5 C94.4,31.6 92.8,32.2 90.9,32.3 L86.9,32.3 C84.9,32.3 83.3,31.7 82.1,30.5 C80.8,31.7 79.2,32.3 77.3,32.3 L72.6,32.3 Z M92.3,11 C91.5,11 90.9,10.8 90.4,10.3 C89.9,9.8 89.7,9.2 89.7,8.3 C89.7,7.5 89.9,6.9 90.4,6.4 C90.9,5.9 91.5,5.7 92.3,5.7 C93.1,5.7 93.7,5.9 94.2,6.4 C94.7,6.9 94.9,7.5 94.9,8.3 C94.9,10.1 94.1,11 92.3,11 Z M95.4,5.2 C93.8,5.2 93,4.4 93,2.8 C93,1.2 93.8,0.4 95.4,0.4 C97,0.4 97.8,1.2 97.8,2.8 C97.7,4.3 96.9,5.2 95.4,5.2 Z M98.5,11 C97.7,11 97.1,10.8 96.6,10.3 C96.1,9.8 95.9,9.2 95.9,8.3 C95.9,7.5 96.1,6.9 96.6,6.4 C97.1,5.9 97.7,5.7 98.5,5.7 C99.3,5.7 99.9,5.9 100.4,6.4 C100.9,6.9 101.1,7.5 101.1,8.3 C101.1,10.1 100.2,11 98.5,11 Z" id="Shape"></path>
                    <path d="M122.6,21.3 C122.6,18.9 123.3,17 124.8,15.7 C126.1,14.5 127.8,13.9 129.8,13.9 C132.4,13.9 134.5,14.9 136,16.8 C137.3,18.4 137.9,20.5 137.9,23.1 C137.9,26.1 137.1,28.4 135.5,30.1 C134.1,31.6 132.3,32.3 130.1,32.3 C128,32.3 126.2,31.8 124.9,30.9 C123.6,31.8 122.1,32.3 120.3,32.3 L116.2,32.3 L116.2,27.5 L119.8,27.5 C120.8,27.5 121.5,27.3 122,26.8 C122.5,26.3 122.6,25.6 122.6,24.6 L122.6,21.3 Z M127.6,25.2 C127.6,26.7 128.4,27.4 130,27.4 C132,27.4 133,25.9 133,22.8 C133,19.9 132,18.4 129.9,18.4 C128.4,18.4 127.7,19.3 127.7,21 L127.7,25.2 L127.6,25.2 Z" id="Shape"></path>
                </g>
            </g>
        </g>
    </g>
</svg>