<?xml version="1.0" encoding="utf-8"?>
<!-- Generator: Adobe Illustrator 21.0.0, SVG Export Plug-In . SVG Version: 6.00 Build 0)  -->
<svg version="1.1" id="Layer_1" xmlns="http://www.w3.org/2000/svg" xmlns:xlink="http://www.w3.org/1999/xlink" x="0px" y="0px"
	 viewBox="0 0 314 105" style="enable-background:new 0 0 314 105;" xml:space="preserve">
<style type="text/css">
	.st0{fill:#333545;}
	.st1{fill:#FFE100;}
</style>
<g>
	<path class="st0" d="M22.5,49.4c-1.4-0.5-3.2-0.8-5.2-0.8c-2,0-3.7,0.5-4.9,1.4c-1.2,0.9-1.8,2.1-1.8,3.4c0,1.3,0.2,2.4,0.7,3.1
		c0.5,0.8,1.2,1.4,2.1,1.9c1.5,0.8,3.3,1.5,5.4,2c2.1,0.6,3.7,1,4.7,1.4c1,0.3,2.3,0.9,3.8,1.7c1.5,0.8,2.7,1.6,3.5,2.5
		c2.1,2.2,3.1,5.1,3.1,8.5c0,4.5-1.6,8-4.9,10.6c-3.3,2.6-7.4,3.8-12.5,3.8c-7.3,0-12.8-0.9-16.6-2.8V73.7L8,73.1v4.3
		c0,2.6,2.5,4,7.6,4s7.6-1.8,7.6-5.5c0-1.3-0.4-2.4-1.3-3.2c-0.9-0.8-1.7-1.4-2.6-1.7c-0.8-0.3-1.8-0.6-3-0.9
		c-1.2-0.3-2.3-0.6-3.4-0.9c-1.1-0.3-2.3-0.7-3.6-1.2c-1.3-0.5-2.7-1.2-4.3-2.2c-3.1-2-4.6-5.3-4.6-9.9c0-4.6,1.6-8.2,5-10.8
		c3.3-2.5,7.5-3.8,12.5-3.8c5,0,10,1.2,14.9,3.6v10.8l-8.1,0.6v-3.8C24.6,51,23.9,50,22.5,49.4z"/>
	<path class="st0" d="M39,49.9v-7.3h15.2v5.8c3.4-4.8,8-7.2,13.8-7.2s9.8,2.4,11.8,7.2c3.4-4.8,7.9-7.2,13.7-7.2
		c4.3,0,7.7,1.3,10,3.9s3.5,6.5,3.5,11.7v23.5l5.1,0.3v7.2H90.7V81l3-0.3c0.9-0.1,1.5-0.4,1.9-0.8c0.4-0.4,0.6-1.1,0.7-2.1V59.2
		c0-3.3-0.4-5.7-1.1-7.3c-0.8-1.6-2.5-2.4-5.3-2.4c-2.8,0-4.9,0.8-6.3,2.5c-1.5,1.7-2.2,3.9-2.2,6.8v21.6l4.9,0.3v7.2H65.1V81l3-0.3
		c0.9-0.1,1.6-0.4,2-0.8c0.4-0.4,0.6-1.1,0.6-2.2V59.2c0-3.3-0.4-5.7-1.1-7.3c-0.8-1.6-2.5-2.4-5.3-2.4s-4.9,0.9-6.3,2.6
		c-1.4,1.7-2.2,3.9-2.2,6.5v21.8l4.9,0.3v7.2H39.3V81l3-0.3c0.9-0.1,1.6-0.4,2-0.8c0.4-0.4,0.6-1.1,0.6-2.2H45V52.9
		c0-1-0.2-1.7-0.5-2.1c-0.3-0.4-0.9-0.6-1.8-0.7L39,49.9z"/>
</g>
<g>
	<path class="st0" d="M212.2,41.2c4.5,0,8.1,1.1,10.7,3.3c2.6,2.2,4,5.3,4,9.2c0,2.6-0.6,5-1.7,7c-1.1,2-2.6,3.6-4.2,4.7
		c-1.7,1.1-3.7,2.1-6.1,2.8c-4,1.2-8.5,1.8-13.6,1.8c0.2,3.2,1.2,5.7,3,7.7c1.8,2,4.6,2.9,8.3,2.9c3.7,0,7.4-1.3,11.2-4l3.4,7.3
		c-1.2,1.1-3.2,2.2-6.1,3.3c-2.9,1.1-6.1,1.7-9.8,1.7c-7.3,0-12.7-2-16.1-6.1s-5.1-9.6-5.1-16.7c0-7.1,1.9-13,5.8-17.8
		C199.7,43.6,205.2,41.2,212.2,41.2z M208.1,61.8c2.2-0.4,4.2-1.3,6.1-2.6c1.9-1.3,2.8-3,2.8-4.8c0-3.7-1.8-5.5-5.4-5.5
		c-3.4,0-5.9,1.3-7.7,4c-1.8,2.7-2.8,5.9-3,9.6C203.5,62.4,205.9,62.2,208.1,61.8z"/>
	<path class="st0" d="M255.8,41.2c4.5,0,8.1,1.1,10.7,3.3c2.6,2.2,4,5.3,4,9.2c0,2.6-0.6,5-1.7,7c-1.1,2-2.6,3.6-4.2,4.7
		c-1.7,1.1-3.7,2.1-6.1,2.8c-4,1.2-8.5,1.8-13.6,1.8c0.2,3.2,1.2,5.7,3,7.7c1.8,2,4.6,2.9,8.3,2.9c3.7,0,7.4-1.3,11.2-4l3.4,7.3
		c-1.2,1.1-3.2,2.2-6.1,3.3c-2.9,1.1-6.1,1.7-9.8,1.7c-7.3,0-12.7-2-16.1-6.1s-5.1-9.6-5.1-16.7c0-7.1,1.9-13,5.8-17.8
		C243.3,43.6,248.8,41.2,255.8,41.2z M251.7,61.8c2.2-0.4,4.2-1.3,6.1-2.6c1.9-1.3,2.8-3,2.8-4.8c0-3.7-1.8-5.5-5.4-5.5
		c-3.4,0-5.9,1.3-7.7,4c-1.8,2.7-2.8,5.9-3,9.6C247.1,62.4,249.5,62.2,251.7,61.8z"/>
	<path class="st0" d="M314.1,87.8h-36.7V81l23.1-30.4h-11.3c-1.3,0-2.1,0.2-2.4,0.7c-0.3,0.5-0.5,1.3-0.5,2.3v3.2l-8.5-0.6V42.6
		h35.8v6.1l-23.4,31.1H303c1.7,0,2.6-1,2.6-3.1v-3.8l8.5,0.6V87.8z"/>
</g>
<g>
	<g>
		<g>
			<path class="st0" d="M123.4,94.3c-4.2-4.2-7.2-9.7-6.6-15.1c-0.6-7.8,3.6-14.5,10.9-19.3c6.6-4.2,14.5-6,22.9-6
				c18.1,0,34.4,11.5,33.8,25.3c0,14.5-15.1,25.9-34.4,25.9C139.7,104.5,130.1,100.9,123.4,94.3z M166.3,75.5
				c-2.4-2.4-7.8-5.4-15.1-5.4c-4.8,0-9.7,1.2-13.3,3.6c-2.4,1.2-3.6,3.6-3.6,4.8c0,1.2,1.2,2.4,1.8,3c2.4,2.4,7.8,5.4,15.1,5.4
				c10.9,0,16.9-4.8,16.9-8.4C167.5,78,166.9,76.2,166.3,75.5z"/>
		</g>
	</g>
	<g>
		<g>
			<path class="st0" d="M123.4,60.5c-4.2-4.2-7.2-9.7-6.6-15.1c-0.6-7.8,4.2-15.1,10.9-19.3c6-4.8,14.5-7.2,22.9-7.2
				c18.1,0,34.4,11.5,33.8,25.3c0,14.5-15.1,25.9-33.8,25.3C139.7,70.7,129.5,66.5,123.4,60.5z M165.7,41.2
				c-2.4-2.4-7.8-5.4-15.1-5.4c-5.4,0.6-10.3,1.8-13.3,3.6c-2.4,2.4-3.6,3.6-4.2,5.4c0,1.2,1.2,2.4,1.8,3c2.4,2.4,7.8,5.4,15.1,5.4
				c10.9,0,16.9-4.8,16.9-8.4C168.1,43.6,166.9,42.4,165.7,41.2z"/>
		</g>
	</g>
	<g>
		<path class="st1" d="M150.6,93.5c-11.4,0-20.4-6.2-19.9-13.3c0-7.6,9-13.8,19.9-13.3c11.4,0,20.4,6.2,19.9,13.3
			C171,87.3,162,93.5,150.6,93.5"/>
	</g>
	<g>
		<path class="st1" d="M150.6,57.5c-11.4,0-20.5-6.2-20-13.4c-0.5-8.1,9.1-13.8,20-14.3c11.4,0,20.5,6.2,20,13.4
			C171.1,51.3,161.6,57,150.6,57.5"/>
	</g>
	<g>
		<path class="st0" d="M99,68c-1.8-1.8-2.4-3.6-2.4-6c0-4.8,3.6-8.5,8.5-8.5l85.8,0c4.8,0,8.5,3.6,8.5,8.5c0,4.8-3.6,8.5-8.5,8.5
			l-85.8,0C102.7,70.5,100.9,69.9,99,68z"/>
	</g>
	<g>
		<path class="st0" d="M172.3,12.3c3.5-3.5,4.4-8.2,2-10.2c-2-2.3-6.7-1.5-10.2,2c-3.5,3.2-4.4,7.9-2,10.2
			C164.1,16.7,168.8,15.8,172.3,12.3"/>
	</g>
	<g>
		<path class="st0" d="M128.3,11.8c3.5,3.5,8.2,4.4,10.2,2c2.3-2.3,1.5-7-2-10.2c-3.5-3.5-8.2-4.4-10.2-2
			C123.9,3.9,125.1,8.6,128.3,11.8"/>
	</g>
</g>
</svg>
